<mxfile host="app.diagrams.net" modified="2023-11-21T06:43:58.631Z" agent="Mozilla/5.0 (Macintosh; Intel Mac OS X 10_15_7) AppleWebKit/537.36 (KHTML, like Gecko) Chrome/119.0.0.0 Safari/537.36" etag="AmIUvbS1dBmECIJ_Gvj9" version="22.1.3" type="github">
  <diagram id="ADD6Pf1-iYHw3PYcDzVL" name="第 1 页">
    <mxGraphModel dx="2534" dy="-612" grid="1" gridSize="10" guides="1" tooltips="1" connect="1" arrows="1" fold="1" page="1" pageScale="1" pageWidth="827" pageHeight="1169" math="1" shadow="0">
      <root>
        <mxCell id="0" />
        <mxCell id="1" parent="0" />
        <mxCell id="pCGolmidNcYzlRykDUOS-10" value="" style="rounded=1;whiteSpace=wrap;html=1;" parent="1" vertex="1">
          <mxGeometry x="-1368.12" y="1522" width="80" height="80" as="geometry" />
        </mxCell>
        <mxCell id="pCGolmidNcYzlRykDUOS-9" value="" style="rounded=1;whiteSpace=wrap;html=1;" parent="1" vertex="1">
          <mxGeometry x="-1367.37" y="1409" width="80" height="80" as="geometry" />
        </mxCell>
        <mxCell id="jL-DoHjZgoJ6Cv4gA63--133" style="rounded=0;orthogonalLoop=1;jettySize=auto;html=1;entryX=1;entryY=0.5;entryDx=0;entryDy=0;fontFamily=Times New Roman;fontSize=10;fontColor=#000000;endArrow=ERzeroToMany;endFill=0;fillColor=#eeeeee;strokeColor=#36393d;exitX=0;exitY=0.5;exitDx=0;exitDy=0;" parent="1" source="jL-DoHjZgoJ6Cv4gA63--70" target="jL-DoHjZgoJ6Cv4gA63--115" edge="1">
          <mxGeometry relative="1" as="geometry">
            <mxPoint x="-987.75" y="1844.37" as="sourcePoint" />
          </mxGeometry>
        </mxCell>
        <mxCell id="lNjEDPmtAGZLamaPp14r-78" value="&lt;font style=&quot;font-size: 12px;&quot;&gt;Und&lt;/font&gt;" style="rounded=1;whiteSpace=wrap;html=1;fontFamily=Times New Roman;fontSize=2;strokeColor=#000000;rotation=0;container=0;fillColor=#FECCCB;strokeWidth=0.2;" parent="1" vertex="1">
          <mxGeometry x="-1387.75" y="1834.37" width="22" height="20" as="geometry" />
        </mxCell>
        <mxCell id="lNjEDPmtAGZLamaPp14r-79" value="&lt;font style=&quot;font-size: 12px;&quot;&gt;der&lt;/font&gt;" style="rounded=1;whiteSpace=wrap;html=1;fontFamily=Times New Roman;fontSize=2;strokeColor=#000000;rotation=0;container=0;fillColor=#FECCCB;strokeWidth=0.2;" parent="1" vertex="1">
          <mxGeometry x="-1343.75" y="1834.37" width="22" height="20" as="geometry" />
        </mxCell>
        <mxCell id="lNjEDPmtAGZLamaPp14r-81" value="&lt;font style=&quot;font-size: 12px;&quot;&gt;[/s]&lt;/font&gt;" style="rounded=1;whiteSpace=wrap;html=1;fontFamily=Times New Roman;fontSize=2;strokeColor=#000000;rotation=0;container=0;fillColor=#FECCCB;strokeWidth=0.2;" parent="1" vertex="1">
          <mxGeometry x="-1260.75" y="1834.37" width="22" height="20" as="geometry" />
        </mxCell>
        <mxCell id="lNjEDPmtAGZLamaPp14r-86" value="&lt;font style=&quot;font-size: 12px;&quot;&gt;And&lt;/font&gt;" style="rounded=1;whiteSpace=wrap;html=1;fontFamily=Times New Roman;fontSize=2;strokeColor=#000000;rotation=0;container=0;fillColor=#FECCCB;strokeWidth=0.2;" parent="1" vertex="1">
          <mxGeometry x="-1217.75" y="1834.37" width="22" height="20" as="geometry" />
        </mxCell>
        <mxCell id="lNjEDPmtAGZLamaPp14r-87" value="&lt;font style=&quot;font-size: 12px;&quot;&gt;[c]&lt;br&gt;&lt;/font&gt;" style="rounded=1;whiteSpace=wrap;html=1;fontFamily=Times New Roman;fontSize=2;strokeColor=#000000;rotation=0;container=0;fillColor=#FECCCB;strokeWidth=0.2;" parent="1" vertex="1">
          <mxGeometry x="-1173.75" y="1834.37" width="22" height="20" as="geometry" />
        </mxCell>
        <mxCell id="lNjEDPmtAGZLamaPp14r-88" value="&lt;font style=&quot;font-size: 12px;&quot;&gt;[/c]&lt;/font&gt;" style="rounded=1;whiteSpace=wrap;html=1;fontFamily=Times New Roman;fontSize=2;strokeColor=#000000;rotation=0;container=0;fillColor=#FECCCB;strokeWidth=0.2;" parent="1" vertex="1">
          <mxGeometry x="-1042.75" y="1834.37" width="22" height="20" as="geometry" />
        </mxCell>
        <mxCell id="lNjEDPmtAGZLamaPp14r-89" value="&lt;font style=&quot;font-size: 12px;&quot;&gt;d&lt;/font&gt;" style="rounded=1;whiteSpace=wrap;html=1;fontFamily=Times New Roman;fontSize=2;strokeColor=#000000;rotation=0;container=0;fillColor=#FECCCB;strokeWidth=0.2;" parent="1" vertex="1">
          <mxGeometry x="-1130.75" y="1834.37" width="22" height="20" as="geometry" />
        </mxCell>
        <mxCell id="lNjEDPmtAGZLamaPp14r-90" value="&lt;font style=&quot;font-size: 12px;&quot;&gt;i&lt;br&gt;&lt;/font&gt;" style="rounded=1;whiteSpace=wrap;html=1;fontFamily=Times New Roman;fontSize=2;strokeColor=#000000;rotation=0;container=0;fillColor=#FECCCB;strokeWidth=0.2;" parent="1" vertex="1">
          <mxGeometry x="-1086.75" y="1834.37" width="22" height="20" as="geometry" />
        </mxCell>
        <mxCell id="lNjEDPmtAGZLamaPp14r-91" value="&lt;font style=&quot;font-size: 12px;&quot;&gt;of&lt;br&gt;&lt;/font&gt;" style="rounded=1;whiteSpace=wrap;html=1;fontFamily=Times New Roman;fontSize=2;strokeColor=#000000;rotation=0;container=0;fillColor=#FECCCB;strokeWidth=0.2;" parent="1" vertex="1">
          <mxGeometry x="-999.75" y="1834.37" width="22" height="20" as="geometry" />
        </mxCell>
        <mxCell id="lNjEDPmtAGZLamaPp14r-92" value="&lt;font style=&quot;font-size: 12px;&quot;&gt;...&lt;/font&gt;" style="rounded=1;whiteSpace=wrap;html=1;fontFamily=Times New Roman;fontSize=2;strokeColor=#000000;rotation=0;container=0;fillColor=#FECCCB;strokeWidth=0.2;" parent="1" vertex="1">
          <mxGeometry x="-1304.75" y="1834.37" width="22" height="20" as="geometry" />
        </mxCell>
        <mxCell id="lNjEDPmtAGZLamaPp14r-93" value="&lt;font style=&quot;font-size: 12px;&quot;&gt;...&lt;br&gt;&lt;/font&gt;" style="rounded=1;whiteSpace=wrap;html=1;fontFamily=Times New Roman;fontSize=2;strokeColor=#000000;rotation=0;container=0;fillColor=#FECCCB;strokeWidth=0.2;" parent="1" vertex="1">
          <mxGeometry x="-955.75" y="1834.37" width="22" height="20" as="geometry" />
        </mxCell>
        <mxCell id="lNjEDPmtAGZLamaPp14r-94" value="&lt;span style=&quot;font-size: 12px;&quot;&gt;0&lt;/span&gt;" style="rounded=1;whiteSpace=wrap;html=1;fontFamily=Times New Roman;fontSize=2;strokeColor=#000000;rotation=0;container=0;fillColor=#CCE2FF;strokeWidth=0.2;" parent="1" vertex="1">
          <mxGeometry x="-1387.75" y="1875.37" width="22" height="20" as="geometry" />
        </mxCell>
        <mxCell id="lNjEDPmtAGZLamaPp14r-95" value="&lt;font style=&quot;font-size: 12px;&quot;&gt;1&lt;/font&gt;" style="rounded=1;whiteSpace=wrap;html=1;fontFamily=Times New Roman;fontSize=2;strokeColor=#000000;rotation=0;container=0;fillColor=#CCE2FF;strokeWidth=0.2;" parent="1" vertex="1">
          <mxGeometry x="-1343.75" y="1875.37" width="22" height="20" as="geometry" />
        </mxCell>
        <mxCell id="lNjEDPmtAGZLamaPp14r-97" value="&lt;font style=&quot;font-size: 12px;&quot;&gt;8&lt;/font&gt;" style="rounded=1;whiteSpace=wrap;html=1;fontFamily=Times New Roman;fontSize=2;strokeColor=#000000;rotation=0;container=0;fillColor=#CCE2FF;strokeWidth=0.2;" parent="1" vertex="1">
          <mxGeometry x="-1260.75" y="1876.37" width="22" height="20" as="geometry" />
        </mxCell>
        <mxCell id="lNjEDPmtAGZLamaPp14r-98" value="&lt;font style=&quot;font-size: 12px;&quot;&gt;0&lt;/font&gt;" style="rounded=1;whiteSpace=wrap;html=1;fontFamily=Times New Roman;fontSize=2;strokeColor=#000000;rotation=0;container=0;fillColor=#CCE2FF;strokeWidth=0.2;" parent="1" vertex="1">
          <mxGeometry x="-1217.75" y="1876.37" width="22" height="20" as="geometry" />
        </mxCell>
        <mxCell id="lNjEDPmtAGZLamaPp14r-99" value="&lt;font style=&quot;font-size: 12px;&quot;&gt;1&lt;/font&gt;" style="rounded=1;whiteSpace=wrap;html=1;fontFamily=Times New Roman;fontSize=2;strokeColor=#000000;rotation=0;container=0;fillColor=#CCE2FF;strokeWidth=0.2;" parent="1" vertex="1">
          <mxGeometry x="-1173.75" y="1876.37" width="22" height="20" as="geometry" />
        </mxCell>
        <mxCell id="lNjEDPmtAGZLamaPp14r-100" value="&lt;font style=&quot;font-size: 12px;&quot;&gt;4&lt;/font&gt;" style="rounded=1;whiteSpace=wrap;html=1;fontFamily=Times New Roman;fontSize=2;strokeColor=#000000;rotation=0;container=0;fillColor=#CCE2FF;strokeWidth=0.2;" parent="1" vertex="1">
          <mxGeometry x="-1042.75" y="1876.37" width="22" height="20" as="geometry" />
        </mxCell>
        <mxCell id="lNjEDPmtAGZLamaPp14r-101" value="&lt;font style=&quot;font-size: 12px;&quot;&gt;2&lt;/font&gt;" style="rounded=1;whiteSpace=wrap;html=1;fontFamily=Times New Roman;fontSize=2;strokeColor=#000000;rotation=0;container=0;fillColor=#CCE2FF;strokeWidth=0.2;" parent="1" vertex="1">
          <mxGeometry x="-1130.75" y="1876.37" width="22" height="20" as="geometry" />
        </mxCell>
        <mxCell id="lNjEDPmtAGZLamaPp14r-102" value="&lt;font style=&quot;font-size: 12px;&quot;&gt;3&lt;br&gt;&lt;/font&gt;" style="rounded=1;whiteSpace=wrap;html=1;fontFamily=Times New Roman;fontSize=2;strokeColor=#000000;rotation=0;container=0;fillColor=#CCE2FF;strokeWidth=0.2;" parent="1" vertex="1">
          <mxGeometry x="-1086.75" y="1876.37" width="22" height="20" as="geometry" />
        </mxCell>
        <mxCell id="lNjEDPmtAGZLamaPp14r-103" value="&lt;font style=&quot;font-size: 12px;&quot;&gt;5&lt;br&gt;&lt;/font&gt;" style="rounded=1;whiteSpace=wrap;html=1;fontFamily=Times New Roman;fontSize=2;strokeColor=#000000;rotation=0;container=0;fillColor=#CCE2FF;strokeWidth=0.2;" parent="1" vertex="1">
          <mxGeometry x="-999.75" y="1876.37" width="22" height="20" as="geometry" />
        </mxCell>
        <mxCell id="lNjEDPmtAGZLamaPp14r-104" value="&lt;font style=&quot;font-size: 12px;&quot;&gt;...&lt;/font&gt;" style="rounded=1;whiteSpace=wrap;html=1;fontFamily=Times New Roman;fontSize=2;strokeColor=#000000;rotation=0;container=0;fillColor=#CCE2FF;strokeWidth=0.2;" parent="1" vertex="1">
          <mxGeometry x="-1304.75" y="1876.37" width="22" height="20" as="geometry" />
        </mxCell>
        <mxCell id="lNjEDPmtAGZLamaPp14r-105" value="&lt;font style=&quot;font-size: 12px;&quot;&gt;...&lt;br&gt;&lt;/font&gt;" style="rounded=1;whiteSpace=wrap;html=1;fontFamily=Times New Roman;fontSize=2;strokeColor=#000000;rotation=0;container=0;fillColor=#CCE2FF;strokeWidth=0.2;" parent="1" vertex="1">
          <mxGeometry x="-955.75" y="1876.37" width="22" height="20" as="geometry" />
        </mxCell>
        <mxCell id="lNjEDPmtAGZLamaPp14r-106" value="&lt;span style=&quot;font-size: 12px;&quot;&gt;de&lt;/span&gt;" style="rounded=1;whiteSpace=wrap;html=1;fontFamily=Times New Roman;fontSize=2;strokeColor=#000000;rotation=0;container=0;strokeWidth=0.2;fillColor=#75c3b7;shadow=0;glass=0;" parent="1" vertex="1">
          <mxGeometry x="-1387.75" y="1917.37" width="22" height="20" as="geometry" />
        </mxCell>
        <mxCell id="lNjEDPmtAGZLamaPp14r-107" value="&lt;font style=&quot;font-size: 12px;&quot;&gt;de&lt;/font&gt;" style="rounded=1;whiteSpace=wrap;html=1;fontFamily=Times New Roman;fontSize=2;strokeColor=#000000;rotation=0;container=0;strokeWidth=0.2;fillColor=#75c3b7;shadow=0;glass=0;" parent="1" vertex="1">
          <mxGeometry x="-1343.75" y="1917.37" width="22" height="20" as="geometry" />
        </mxCell>
        <mxCell id="lNjEDPmtAGZLamaPp14r-109" value="&lt;font style=&quot;font-size: 12px;&quot;&gt;de&lt;/font&gt;" style="rounded=1;whiteSpace=wrap;html=1;fontFamily=Times New Roman;fontSize=2;strokeColor=#000000;rotation=0;container=0;strokeWidth=0.2;fillColor=#75c3b7;shadow=0;glass=0;" parent="1" vertex="1">
          <mxGeometry x="-1260.75" y="1917.37" width="22" height="20" as="geometry" />
        </mxCell>
        <mxCell id="lNjEDPmtAGZLamaPp14r-110" value="&lt;font style=&quot;font-size: 12px;&quot;&gt;en&lt;/font&gt;" style="rounded=1;whiteSpace=wrap;html=1;fontFamily=Times New Roman;fontSize=2;strokeColor=#000000;rotation=0;container=0;strokeWidth=0.2;fillColor=#75c3b7;shadow=0;glass=0;" parent="1" vertex="1">
          <mxGeometry x="-1217.75" y="1917.37" width="22" height="20" as="geometry" />
        </mxCell>
        <mxCell id="lNjEDPmtAGZLamaPp14r-111" value="&lt;font style=&quot;font-size: 12px;&quot;&gt;en&lt;/font&gt;" style="rounded=1;whiteSpace=wrap;html=1;fontFamily=Times New Roman;fontSize=2;strokeColor=#000000;rotation=0;container=0;strokeWidth=0.2;fillColor=#75c3b7;shadow=0;glass=0;" parent="1" vertex="1">
          <mxGeometry x="-1173.75" y="1917.37" width="22" height="20" as="geometry" />
        </mxCell>
        <mxCell id="lNjEDPmtAGZLamaPp14r-112" value="&lt;font style=&quot;font-size: 12px;&quot;&gt;en&lt;/font&gt;" style="rounded=1;whiteSpace=wrap;html=1;fontFamily=Times New Roman;fontSize=2;strokeColor=#000000;rotation=0;container=0;strokeWidth=0.2;fillColor=#75c3b7;shadow=0;glass=0;" parent="1" vertex="1">
          <mxGeometry x="-1042.75" y="1917.37" width="22" height="20" as="geometry" />
        </mxCell>
        <mxCell id="lNjEDPmtAGZLamaPp14r-113" value="&lt;font style=&quot;font-size: 12px;&quot;&gt;en&lt;/font&gt;" style="rounded=1;whiteSpace=wrap;html=1;fontFamily=Times New Roman;fontSize=2;strokeColor=#000000;rotation=0;container=0;strokeWidth=0.2;fillColor=#75c3b7;shadow=0;glass=0;" parent="1" vertex="1">
          <mxGeometry x="-1130.75" y="1917.37" width="22" height="20" as="geometry" />
        </mxCell>
        <mxCell id="lNjEDPmtAGZLamaPp14r-114" value="&lt;font style=&quot;font-size: 12px;&quot;&gt;en&lt;br&gt;&lt;/font&gt;" style="rounded=1;whiteSpace=wrap;html=1;fontFamily=Times New Roman;fontSize=2;strokeColor=#000000;rotation=0;container=0;strokeWidth=0.2;fillColor=#75c3b7;shadow=0;glass=0;" parent="1" vertex="1">
          <mxGeometry x="-1086.75" y="1917.37" width="22" height="20" as="geometry" />
        </mxCell>
        <mxCell id="lNjEDPmtAGZLamaPp14r-115" value="&lt;font style=&quot;font-size: 12px;&quot;&gt;en&lt;br&gt;&lt;/font&gt;" style="rounded=1;whiteSpace=wrap;html=1;fontFamily=Times New Roman;fontSize=2;strokeColor=#000000;rotation=0;container=0;strokeWidth=0.2;fillColor=#75c3b7;shadow=0;glass=0;" parent="1" vertex="1">
          <mxGeometry x="-999.75" y="1918.37" width="22" height="20" as="geometry" />
        </mxCell>
        <mxCell id="lNjEDPmtAGZLamaPp14r-116" value="&lt;span style=&quot;font-size: 12px;&quot;&gt;...&lt;/span&gt;" style="rounded=1;whiteSpace=wrap;html=1;fontFamily=Times New Roman;fontSize=2;strokeColor=#000000;rotation=0;container=0;strokeWidth=0.2;fillColor=#75c3b7;shadow=0;glass=0;" parent="1" vertex="1">
          <mxGeometry x="-1304.75" y="1918.37" width="22" height="20" as="geometry" />
        </mxCell>
        <mxCell id="lNjEDPmtAGZLamaPp14r-117" value="&lt;font style=&quot;font-size: 12px;&quot;&gt;...&lt;br&gt;&lt;/font&gt;" style="rounded=1;whiteSpace=wrap;html=1;fontFamily=Times New Roman;fontSize=2;strokeColor=#000000;rotation=0;container=0;strokeWidth=0.2;fillColor=#75c3b7;shadow=0;glass=0;" parent="1" vertex="1">
          <mxGeometry x="-955.75" y="1918.37" width="22" height="20" as="geometry" />
        </mxCell>
        <mxCell id="jL-DoHjZgoJ6Cv4gA63--115" value="&lt;b&gt;Input Encoder&lt;/b&gt;" style="rounded=1;whiteSpace=wrap;html=1;fontSize=15;fillColor=#eeeeee;strokeColor=#36393d;strokeWidth=0.5;fillStyle=auto;fontFamily=Times New Roman;opacity=70;" parent="1" vertex="1">
          <mxGeometry x="-1394" y="1774.37" width="466.25" height="36.75" as="geometry" />
        </mxCell>
        <mxCell id="jL-DoHjZgoJ6Cv4gA63--70" value="&lt;b&gt;Target Decoder&lt;/b&gt;" style="rounded=1;whiteSpace=wrap;html=1;fontSize=15;fillColor=#eeeeee;strokeColor=#36393d;strokeWidth=0.5;fillStyle=auto;fontFamily=Times New Roman;opacity=80;" parent="1" vertex="1">
          <mxGeometry x="-874.75" y="1774.37" width="350" height="37.75" as="geometry" />
        </mxCell>
        <mxCell id="lNjEDPmtAGZLamaPp14r-118" value="Token&lt;br&gt;Embeddings" style="text;html=1;align=center;verticalAlign=middle;resizable=0;points=[];autosize=1;strokeColor=none;fillColor=none;" parent="1" vertex="1">
          <mxGeometry x="-1477.75" y="1822.19" width="90" height="40" as="geometry" />
        </mxCell>
        <mxCell id="lNjEDPmtAGZLamaPp14r-119" value="Position&lt;br&gt;Embeddings" style="text;html=1;align=center;verticalAlign=middle;resizable=0;points=[];autosize=1;strokeColor=none;fillColor=none;" parent="1" vertex="1">
          <mxGeometry x="-1479.75" y="1864.37" width="90" height="40" as="geometry" />
        </mxCell>
        <mxCell id="lNjEDPmtAGZLamaPp14r-120" value="Language&lt;br&gt;Embeddings" style="text;html=1;align=center;verticalAlign=middle;resizable=0;points=[];autosize=1;strokeColor=none;fillColor=none;" parent="1" vertex="1">
          <mxGeometry x="-1480" y="1905.37" width="90" height="40" as="geometry" />
        </mxCell>
        <mxCell id="lNjEDPmtAGZLamaPp14r-121" value="" style="shape=cross;whiteSpace=wrap;html=1;size=0.17183098591549423;fillColor=#000000;strokeColor=#000000;strokeWidth=0.4;" parent="1" vertex="1">
          <mxGeometry x="-1383.88" y="1861.37" width="10" height="10" as="geometry" />
        </mxCell>
        <mxCell id="lNjEDPmtAGZLamaPp14r-122" value="" style="shape=cross;whiteSpace=wrap;html=1;size=0.17183098591549423;fillColor=#000000;strokeColor=#000000;strokeWidth=0.4;" parent="1" vertex="1">
          <mxGeometry x="-1383.88" y="1901.37" width="10" height="10" as="geometry" />
        </mxCell>
        <mxCell id="lNjEDPmtAGZLamaPp14r-127" value="" style="shape=cross;whiteSpace=wrap;html=1;size=0.17183098591549423;fillColor=#000000;strokeColor=#000000;strokeWidth=0.4;" parent="1" vertex="1">
          <mxGeometry x="-1338.8700000000001" y="1861.37" width="10" height="10" as="geometry" />
        </mxCell>
        <mxCell id="lNjEDPmtAGZLamaPp14r-128" value="" style="shape=cross;whiteSpace=wrap;html=1;size=0.17183098591549423;fillColor=#000000;strokeColor=#000000;strokeWidth=0.4;" parent="1" vertex="1">
          <mxGeometry x="-1340.75" y="1901.37" width="10" height="10" as="geometry" />
        </mxCell>
        <mxCell id="lNjEDPmtAGZLamaPp14r-131" value="" style="shape=cross;whiteSpace=wrap;html=1;size=0.17183098591549423;fillColor=#000000;strokeColor=#000000;strokeWidth=0.4;" parent="1" vertex="1">
          <mxGeometry x="-1299.8700000000001" y="1861.37" width="10" height="10" as="geometry" />
        </mxCell>
        <mxCell id="lNjEDPmtAGZLamaPp14r-132" value="" style="shape=cross;whiteSpace=wrap;html=1;size=0.17183098591549423;fillColor=#000000;strokeColor=#000000;strokeWidth=0.4;" parent="1" vertex="1">
          <mxGeometry x="-1297.75" y="1902.37" width="10" height="10" as="geometry" />
        </mxCell>
        <mxCell id="lNjEDPmtAGZLamaPp14r-133" value="" style="shape=cross;whiteSpace=wrap;html=1;size=0.17183098591549423;fillColor=#000000;strokeColor=#000000;strokeWidth=0.4;" parent="1" vertex="1">
          <mxGeometry x="-1255.8700000000001" y="1861.37" width="10" height="10" as="geometry" />
        </mxCell>
        <mxCell id="lNjEDPmtAGZLamaPp14r-134" value="" style="shape=cross;whiteSpace=wrap;html=1;size=0.17183098591549423;fillColor=#000000;strokeColor=#000000;strokeWidth=0.4;" parent="1" vertex="1">
          <mxGeometry x="-1253.75" y="1902.37" width="10" height="10" as="geometry" />
        </mxCell>
        <mxCell id="lNjEDPmtAGZLamaPp14r-135" value="" style="shape=cross;whiteSpace=wrap;html=1;size=0.17183098591549423;fillColor=#000000;strokeColor=#000000;strokeWidth=0.4;" parent="1" vertex="1">
          <mxGeometry x="-1212.8700000000001" y="1861.37" width="10" height="10" as="geometry" />
        </mxCell>
        <mxCell id="lNjEDPmtAGZLamaPp14r-136" value="" style="shape=cross;whiteSpace=wrap;html=1;size=0.17183098591549423;fillColor=#000000;strokeColor=#000000;strokeWidth=0.4;" parent="1" vertex="1">
          <mxGeometry x="-1210.75" y="1902.37" width="10" height="10" as="geometry" />
        </mxCell>
        <mxCell id="lNjEDPmtAGZLamaPp14r-137" value="" style="shape=cross;whiteSpace=wrap;html=1;size=0.17183098591549423;fillColor=#000000;strokeColor=#000000;strokeWidth=0.4;" parent="1" vertex="1">
          <mxGeometry x="-1168.8700000000001" y="1861.37" width="10" height="10" as="geometry" />
        </mxCell>
        <mxCell id="lNjEDPmtAGZLamaPp14r-138" value="" style="shape=cross;whiteSpace=wrap;html=1;size=0.17183098591549423;fillColor=#000000;strokeColor=#000000;strokeWidth=0.4;" parent="1" vertex="1">
          <mxGeometry x="-1167.75" y="1902.37" width="10" height="10" as="geometry" />
        </mxCell>
        <mxCell id="lNjEDPmtAGZLamaPp14r-141" value="" style="shape=cross;whiteSpace=wrap;html=1;size=0.17183098591549423;fillColor=#000000;strokeColor=#000000;strokeWidth=0.4;" parent="1" vertex="1">
          <mxGeometry x="-1125.8700000000001" y="1861.37" width="10" height="10" as="geometry" />
        </mxCell>
        <mxCell id="lNjEDPmtAGZLamaPp14r-142" value="" style="shape=cross;whiteSpace=wrap;html=1;size=0.17183098591549423;fillColor=#000000;strokeColor=#000000;strokeWidth=0.4;" parent="1" vertex="1">
          <mxGeometry x="-1123.75" y="1902.37" width="10" height="10" as="geometry" />
        </mxCell>
        <mxCell id="lNjEDPmtAGZLamaPp14r-143" value="" style="shape=cross;whiteSpace=wrap;html=1;size=0.17183098591549423;fillColor=#000000;strokeColor=#000000;strokeWidth=0.4;" parent="1" vertex="1">
          <mxGeometry x="-1081.8700000000001" y="1861.37" width="10" height="10" as="geometry" />
        </mxCell>
        <mxCell id="lNjEDPmtAGZLamaPp14r-144" value="" style="shape=cross;whiteSpace=wrap;html=1;size=0.17183098591549423;fillColor=#000000;strokeColor=#000000;strokeWidth=0.4;" parent="1" vertex="1">
          <mxGeometry x="-1080.75" y="1902.37" width="10" height="10" as="geometry" />
        </mxCell>
        <mxCell id="lNjEDPmtAGZLamaPp14r-145" value="" style="shape=cross;whiteSpace=wrap;html=1;size=0.17183098591549423;fillColor=#000000;strokeColor=#000000;strokeWidth=0.4;" parent="1" vertex="1">
          <mxGeometry x="-1037.8700000000001" y="1861.37" width="10" height="10" as="geometry" />
        </mxCell>
        <mxCell id="lNjEDPmtAGZLamaPp14r-146" value="" style="shape=cross;whiteSpace=wrap;html=1;size=0.17183098591549423;fillColor=#000000;strokeColor=#000000;strokeWidth=0.4;" parent="1" vertex="1">
          <mxGeometry x="-1037.75" y="1902.37" width="10" height="10" as="geometry" />
        </mxCell>
        <mxCell id="lNjEDPmtAGZLamaPp14r-149" value="" style="shape=cross;whiteSpace=wrap;html=1;size=0.17183098591549423;fillColor=#000000;strokeColor=#000000;strokeWidth=0.4;" parent="1" vertex="1">
          <mxGeometry x="-994.8700000000001" y="1861.37" width="10" height="10" as="geometry" />
        </mxCell>
        <mxCell id="lNjEDPmtAGZLamaPp14r-150" value="" style="shape=cross;whiteSpace=wrap;html=1;size=0.17183098591549423;fillColor=#000000;strokeColor=#000000;strokeWidth=0.4;" parent="1" vertex="1">
          <mxGeometry x="-993.75" y="1902.37" width="10" height="10" as="geometry" />
        </mxCell>
        <mxCell id="lNjEDPmtAGZLamaPp14r-151" value="" style="shape=cross;whiteSpace=wrap;html=1;size=0.17183098591549423;fillColor=#000000;strokeColor=#000000;strokeWidth=0.4;" parent="1" vertex="1">
          <mxGeometry x="-950.8700000000001" y="1861.37" width="10" height="10" as="geometry" />
        </mxCell>
        <mxCell id="lNjEDPmtAGZLamaPp14r-152" value="" style="shape=cross;whiteSpace=wrap;html=1;size=0.17183098591549423;fillColor=#000000;strokeColor=#000000;strokeWidth=0.4;" parent="1" vertex="1">
          <mxGeometry x="-950.8700000000001" y="1902.37" width="10" height="10" as="geometry" />
        </mxCell>
        <mxCell id="lNjEDPmtAGZLamaPp14r-257" value="&lt;font style=&quot;font-size: 12px;&quot;&gt;the&lt;/font&gt;" style="rounded=1;whiteSpace=wrap;html=1;fontFamily=Times New Roman;fontSize=2;strokeColor=#000000;rotation=0;container=0;align=center;verticalAlign=middle;horizontal=1;spacingTop=-2;fillColor=#FECCCB;strokeWidth=0.2;" parent="1" vertex="1">
          <mxGeometry x="-694.87" y="1836.19" width="44" height="20" as="geometry" />
        </mxCell>
        <mxCell id="lNjEDPmtAGZLamaPp14r-266" value="&lt;span style=&quot;font-size: 12px;&quot;&gt;0&lt;/span&gt;" style="rounded=1;whiteSpace=wrap;html=1;fontFamily=Times New Roman;fontSize=2;strokeColor=#000000;rotation=0;container=0;fillColor=#CCE2FF;strokeWidth=0.2;" parent="1" vertex="1">
          <mxGeometry x="-871.75" y="1875.37" width="44" height="20" as="geometry" />
        </mxCell>
        <mxCell id="lNjEDPmtAGZLamaPp14r-267" value="&lt;font style=&quot;font-size: 12px;&quot;&gt;1&lt;/font&gt;" style="rounded=1;whiteSpace=wrap;html=1;fontFamily=Times New Roman;fontSize=2;strokeColor=#000000;rotation=0;container=0;fillColor=#CCE2FF;strokeWidth=0.2;" parent="1" vertex="1">
          <mxGeometry x="-814.62" y="1875.37" width="44" height="20" as="geometry" />
        </mxCell>
        <mxCell id="lNjEDPmtAGZLamaPp14r-268" value="&lt;font style=&quot;font-size: 12px;&quot;&gt;2&lt;/font&gt;" style="rounded=1;whiteSpace=wrap;html=1;fontFamily=Times New Roman;fontSize=2;strokeColor=#000000;rotation=0;container=0;fillColor=#CCE2FF;strokeWidth=0.2;" parent="1" vertex="1">
          <mxGeometry x="-753" y="1875.37" width="44" height="20" as="geometry" />
        </mxCell>
        <mxCell id="lNjEDPmtAGZLamaPp14r-269" value="&lt;font style=&quot;font-size: 12px;&quot;&gt;4&lt;/font&gt;" style="rounded=1;whiteSpace=wrap;html=1;fontFamily=Times New Roman;fontSize=2;strokeColor=#000000;rotation=0;container=0;fillColor=#CCE2FF;strokeWidth=0.2;" parent="1" vertex="1">
          <mxGeometry x="-635.75" y="1875.37" width="44" height="20" as="geometry" />
        </mxCell>
        <mxCell id="lNjEDPmtAGZLamaPp14r-270" value="&lt;font style=&quot;font-size: 12px;&quot;&gt;5&lt;/font&gt;" style="rounded=1;whiteSpace=wrap;html=1;fontFamily=Times New Roman;fontSize=2;strokeColor=#000000;rotation=0;container=0;fillColor=#CCE2FF;strokeWidth=0.2;" parent="1" vertex="1">
          <mxGeometry x="-571.75" y="1875.37" width="44" height="20" as="geometry" />
        </mxCell>
        <mxCell id="lNjEDPmtAGZLamaPp14r-276" value="&lt;font style=&quot;font-size: 12px;&quot;&gt;3&lt;/font&gt;" style="rounded=1;whiteSpace=wrap;html=1;fontFamily=Times New Roman;fontSize=2;strokeColor=#000000;rotation=0;container=0;fillColor=#CCE2FF;strokeWidth=0.2;" parent="1" vertex="1">
          <mxGeometry x="-694.87" y="1875.37" width="44" height="20" as="geometry" />
        </mxCell>
        <mxCell id="lNjEDPmtAGZLamaPp14r-278" value="&lt;span style=&quot;font-size: 12px;&quot;&gt;en&lt;/span&gt;" style="rounded=1;whiteSpace=wrap;html=1;fontFamily=Times New Roman;fontSize=2;strokeColor=#000000;rotation=0;container=0;strokeWidth=0.2;fillColor=#75c3b7;shadow=0;glass=0;" parent="1" vertex="1">
          <mxGeometry x="-871.75" y="1918.37" width="44" height="20" as="geometry" />
        </mxCell>
        <mxCell id="lNjEDPmtAGZLamaPp14r-279" value="&lt;font style=&quot;font-size: 12px;&quot;&gt;en&lt;/font&gt;" style="rounded=1;whiteSpace=wrap;html=1;fontFamily=Times New Roman;fontSize=2;strokeColor=#000000;rotation=0;container=0;strokeWidth=0.2;fillColor=#75c3b7;shadow=0;glass=0;" parent="1" vertex="1">
          <mxGeometry x="-814.62" y="1918.37" width="44" height="20" as="geometry" />
        </mxCell>
        <mxCell id="lNjEDPmtAGZLamaPp14r-280" value="&lt;font style=&quot;font-size: 12px;&quot;&gt;en&lt;/font&gt;" style="rounded=1;whiteSpace=wrap;html=1;fontFamily=Times New Roman;fontSize=2;strokeColor=#000000;rotation=0;container=0;strokeWidth=0.2;fillColor=#75c3b7;shadow=0;glass=0;" parent="1" vertex="1">
          <mxGeometry x="-753.5" y="1918.37" width="44" height="20" as="geometry" />
        </mxCell>
        <mxCell id="lNjEDPmtAGZLamaPp14r-281" value="&lt;font style=&quot;font-size: 12px;&quot;&gt;en&lt;/font&gt;" style="rounded=1;whiteSpace=wrap;html=1;fontFamily=Times New Roman;fontSize=2;strokeColor=#000000;rotation=0;container=0;strokeWidth=0.2;fillColor=#75c3b7;shadow=0;glass=0;" parent="1" vertex="1">
          <mxGeometry x="-634.74" y="1918.37" width="44" height="20" as="geometry" />
        </mxCell>
        <mxCell id="lNjEDPmtAGZLamaPp14r-282" value="&lt;font style=&quot;font-size: 12px;&quot;&gt;en&lt;/font&gt;" style="rounded=1;whiteSpace=wrap;html=1;fontFamily=Times New Roman;fontSize=2;strokeColor=#000000;rotation=0;container=0;strokeWidth=0.2;fillColor=#75c3b7;shadow=0;glass=0;" parent="1" vertex="1">
          <mxGeometry x="-571.75" y="1918.37" width="44" height="20" as="geometry" />
        </mxCell>
        <mxCell id="lNjEDPmtAGZLamaPp14r-288" value="&lt;span style=&quot;font-size: 12px;&quot;&gt;en&lt;/span&gt;" style="rounded=1;whiteSpace=wrap;html=1;fontFamily=Times New Roman;fontSize=2;strokeColor=#000000;rotation=0;container=0;strokeWidth=0.2;fillColor=#75c3b7;shadow=0;glass=0;" parent="1" vertex="1">
          <mxGeometry x="-694.87" y="1918.37" width="44" height="20" as="geometry" />
        </mxCell>
        <mxCell id="lNjEDPmtAGZLamaPp14r-290" value="" style="shape=cross;whiteSpace=wrap;html=1;size=0.17183098591549423;fillColor=#000000;strokeColor=#000000;strokeWidth=0.4;" parent="1" vertex="1">
          <mxGeometry x="-853.7500000000001" y="1860.37" width="10" height="10" as="geometry" />
        </mxCell>
        <mxCell id="lNjEDPmtAGZLamaPp14r-292" value="" style="shape=cross;whiteSpace=wrap;html=1;size=0.17183098591549423;fillColor=#000000;strokeColor=#000000;strokeWidth=0.4;" parent="1" vertex="1">
          <mxGeometry x="-795.7500000000001" y="1861.19" width="10" height="10" as="geometry" />
        </mxCell>
        <mxCell id="lNjEDPmtAGZLamaPp14r-294" value="" style="shape=cross;whiteSpace=wrap;html=1;size=0.17183098591549423;fillColor=#000000;strokeColor=#000000;strokeWidth=0.4;" parent="1" vertex="1">
          <mxGeometry x="-736.0000000000001" y="1860.37" width="10" height="10" as="geometry" />
        </mxCell>
        <mxCell id="lNjEDPmtAGZLamaPp14r-296" value="" style="shape=cross;whiteSpace=wrap;html=1;size=0.17183098591549423;fillColor=#000000;strokeColor=#000000;strokeWidth=0.4;" parent="1" vertex="1">
          <mxGeometry x="-677.7400000000001" y="1861.19" width="10" height="10" as="geometry" />
        </mxCell>
        <mxCell id="lNjEDPmtAGZLamaPp14r-298" value="" style="shape=cross;whiteSpace=wrap;html=1;size=0.17183098591549423;fillColor=#000000;strokeColor=#000000;strokeWidth=0.4;" parent="1" vertex="1">
          <mxGeometry x="-617.7400000000001" y="1861.19" width="10" height="10" as="geometry" />
        </mxCell>
        <mxCell id="lNjEDPmtAGZLamaPp14r-300" value="" style="shape=cross;whiteSpace=wrap;html=1;size=0.17183098591549423;fillColor=#000000;strokeColor=#000000;strokeWidth=0.4;" parent="1" vertex="1">
          <mxGeometry x="-554.7500000000001" y="1860.37" width="10" height="10" as="geometry" />
        </mxCell>
        <mxCell id="lNjEDPmtAGZLamaPp14r-320" value="" style="shape=flexArrow;endArrow=classic;html=1;rounded=0;width=1.8749999999999998;endSize=1.4386363636363635;endWidth=4.187983069562017;fillColor=#000000;strokeColor=#000000;strokeWidth=0.4;" parent="1" edge="1">
          <mxGeometry width="50" height="50" relative="1" as="geometry">
            <mxPoint x="-1377.95" y="1828.19" as="sourcePoint" />
            <mxPoint x="-1377.95" y="1811.37" as="targetPoint" />
          </mxGeometry>
        </mxCell>
        <mxCell id="lNjEDPmtAGZLamaPp14r-321" value="" style="shape=flexArrow;endArrow=classic;html=1;rounded=0;width=1.8749999999999998;endSize=1.4386363636363635;endWidth=4.187983069562017;fillColor=#000000;strokeColor=#000000;strokeWidth=0.4;" parent="1" edge="1">
          <mxGeometry width="50" height="50" relative="1" as="geometry">
            <mxPoint x="-1334.03" y="1829.19" as="sourcePoint" />
            <mxPoint x="-1334.03" y="1812.37" as="targetPoint" />
          </mxGeometry>
        </mxCell>
        <mxCell id="lNjEDPmtAGZLamaPp14r-323" value="" style="shape=flexArrow;endArrow=classic;html=1;rounded=0;width=1.8749999999999998;endSize=1.4386363636363635;endWidth=4.187983069562017;fillColor=#000000;strokeColor=#000000;strokeWidth=0.4;" parent="1" edge="1">
          <mxGeometry width="50" height="50" relative="1" as="geometry">
            <mxPoint x="-1295.03" y="1829.19" as="sourcePoint" />
            <mxPoint x="-1295.03" y="1812.37" as="targetPoint" />
          </mxGeometry>
        </mxCell>
        <mxCell id="lNjEDPmtAGZLamaPp14r-333" value="" style="shape=flexArrow;endArrow=classic;html=1;rounded=0;width=1.8749999999999998;endSize=1.4386363636363635;endWidth=4.187983069562017;fillColor=#000000;strokeColor=#000000;strokeWidth=0.4;" parent="1" edge="1">
          <mxGeometry width="50" height="50" relative="1" as="geometry">
            <mxPoint x="-1250.58" y="1829.37" as="sourcePoint" />
            <mxPoint x="-1250.58" y="1812.5500000000002" as="targetPoint" />
          </mxGeometry>
        </mxCell>
        <mxCell id="lNjEDPmtAGZLamaPp14r-334" value="" style="shape=flexArrow;endArrow=classic;html=1;rounded=0;width=1.8749999999999998;endSize=1.4386363636363635;endWidth=4.187983069562017;fillColor=#000000;strokeColor=#000000;strokeWidth=0.4;" parent="1" edge="1">
          <mxGeometry width="50" height="50" relative="1" as="geometry">
            <mxPoint x="-1206.6599999999999" y="1830.37" as="sourcePoint" />
            <mxPoint x="-1206.6599999999999" y="1813.5500000000002" as="targetPoint" />
          </mxGeometry>
        </mxCell>
        <mxCell id="lNjEDPmtAGZLamaPp14r-335" value="" style="shape=flexArrow;endArrow=classic;html=1;rounded=0;width=1.8749999999999998;endSize=1.4386363636363635;endWidth=4.187983069562017;fillColor=#000000;strokeColor=#000000;strokeWidth=0.4;" parent="1" edge="1">
          <mxGeometry width="50" height="50" relative="1" as="geometry">
            <mxPoint x="-1163.6599999999999" y="1830.37" as="sourcePoint" />
            <mxPoint x="-1163.6599999999999" y="1813.5500000000002" as="targetPoint" />
          </mxGeometry>
        </mxCell>
        <mxCell id="lNjEDPmtAGZLamaPp14r-336" value="" style="shape=flexArrow;endArrow=classic;html=1;rounded=0;width=1.8749999999999998;endSize=1.4386363636363635;endWidth=4.187983069562017;fillColor=#000000;strokeColor=#000000;strokeWidth=0.4;" parent="1" edge="1">
          <mxGeometry width="50" height="50" relative="1" as="geometry">
            <mxPoint x="-1119.6599999999999" y="1830.37" as="sourcePoint" />
            <mxPoint x="-1119.6599999999999" y="1813.5500000000002" as="targetPoint" />
          </mxGeometry>
        </mxCell>
        <mxCell id="lNjEDPmtAGZLamaPp14r-337" value="" style="shape=flexArrow;endArrow=classic;html=1;rounded=0;width=1.8749999999999998;endSize=1.4386363636363635;endWidth=4.187983069562017;fillColor=#000000;strokeColor=#000000;strokeWidth=0.4;" parent="1" edge="1">
          <mxGeometry width="50" height="50" relative="1" as="geometry">
            <mxPoint x="-1077.1299999999999" y="1830.37" as="sourcePoint" />
            <mxPoint x="-1077.1299999999999" y="1813.5500000000002" as="targetPoint" />
          </mxGeometry>
        </mxCell>
        <mxCell id="lNjEDPmtAGZLamaPp14r-338" value="" style="shape=flexArrow;endArrow=classic;html=1;rounded=0;width=1.8749999999999998;endSize=1.4386363636363635;endWidth=4.187983069562017;fillColor=#000000;strokeColor=#000000;strokeWidth=0.4;" parent="1" edge="1">
          <mxGeometry width="50" height="50" relative="1" as="geometry">
            <mxPoint x="-1033.2099999999998" y="1830.37" as="sourcePoint" />
            <mxPoint x="-1033.2099999999998" y="1813.5500000000002" as="targetPoint" />
          </mxGeometry>
        </mxCell>
        <mxCell id="lNjEDPmtAGZLamaPp14r-339" value="" style="shape=flexArrow;endArrow=classic;html=1;rounded=0;width=1.8749999999999998;endSize=1.4386363636363635;endWidth=4.187983069562017;fillColor=#000000;strokeColor=#000000;strokeWidth=0.4;" parent="1" edge="1">
          <mxGeometry width="50" height="50" relative="1" as="geometry">
            <mxPoint x="-990.2099999999998" y="1830.37" as="sourcePoint" />
            <mxPoint x="-990.2099999999998" y="1813.5500000000002" as="targetPoint" />
          </mxGeometry>
        </mxCell>
        <mxCell id="lNjEDPmtAGZLamaPp14r-340" value="" style="shape=flexArrow;endArrow=classic;html=1;rounded=0;width=1.8749999999999998;endSize=1.4386363636363635;endWidth=4.187983069562017;fillColor=#000000;strokeColor=#000000;strokeWidth=0.4;" parent="1" edge="1">
          <mxGeometry width="50" height="50" relative="1" as="geometry">
            <mxPoint x="-946.2099999999998" y="1830.37" as="sourcePoint" />
            <mxPoint x="-946.2099999999998" y="1813.5500000000002" as="targetPoint" />
          </mxGeometry>
        </mxCell>
        <mxCell id="lNjEDPmtAGZLamaPp14r-347" value="" style="shape=flexArrow;endArrow=classic;html=1;rounded=0;width=1.8749999999999998;endSize=1.4386363636363635;endWidth=4.187983069562017;fillColor=#000000;strokeColor=#000000;strokeWidth=0.4;" parent="1" edge="1">
          <mxGeometry width="50" height="50" relative="1" as="geometry">
            <mxPoint x="-786.7499999999998" y="1831.19" as="sourcePoint" />
            <mxPoint x="-786.7499999999998" y="1814.37" as="targetPoint" />
          </mxGeometry>
        </mxCell>
        <mxCell id="lNjEDPmtAGZLamaPp14r-348" value="" style="shape=flexArrow;endArrow=classic;html=1;rounded=0;width=1.8749999999999998;endSize=1.4386363636363635;endWidth=4.187983069562017;fillColor=#000000;strokeColor=#000000;strokeWidth=0.4;" parent="1" edge="1">
          <mxGeometry width="50" height="50" relative="1" as="geometry">
            <mxPoint x="-727.1699999999998" y="1831.19" as="sourcePoint" />
            <mxPoint x="-727.1699999999998" y="1814.37" as="targetPoint" />
          </mxGeometry>
        </mxCell>
        <mxCell id="lNjEDPmtAGZLamaPp14r-349" value="" style="shape=flexArrow;endArrow=classic;html=1;rounded=0;width=1.8749999999999998;endSize=1.4386363636363635;endWidth=4.187983069562017;fillColor=#000000;strokeColor=#000000;strokeWidth=0.4;" parent="1" edge="1">
          <mxGeometry width="50" height="50" relative="1" as="geometry">
            <mxPoint x="-672.8399999999998" y="1831.19" as="sourcePoint" />
            <mxPoint x="-672.8399999999998" y="1814.37" as="targetPoint" />
          </mxGeometry>
        </mxCell>
        <mxCell id="lNjEDPmtAGZLamaPp14r-350" value="" style="shape=flexArrow;endArrow=classic;html=1;rounded=0;width=1.8749999999999998;endSize=1.4386363636363635;endWidth=4.187983069562017;fillColor=#000000;strokeColor=#000000;strokeWidth=0.4;" parent="1" edge="1">
          <mxGeometry width="50" height="50" relative="1" as="geometry">
            <mxPoint x="-612.8399999999997" y="1831.19" as="sourcePoint" />
            <mxPoint x="-612.8399999999997" y="1814.37" as="targetPoint" />
          </mxGeometry>
        </mxCell>
        <mxCell id="lNjEDPmtAGZLamaPp14r-351" value="" style="shape=flexArrow;endArrow=classic;html=1;rounded=0;width=1.8749999999999998;endSize=1.4386363636363635;endWidth=4.187983069562017;fillColor=#000000;strokeColor=#000000;strokeWidth=0.4;" parent="1" edge="1">
          <mxGeometry width="50" height="50" relative="1" as="geometry">
            <mxPoint x="-549.8499999999997" y="1831.19" as="sourcePoint" />
            <mxPoint x="-549.8499999999997" y="1814.37" as="targetPoint" />
          </mxGeometry>
        </mxCell>
        <mxCell id="lNjEDPmtAGZLamaPp14r-352" value="" style="shape=flexArrow;endArrow=classic;html=1;rounded=0;width=1.8749999999999998;endSize=1.4386363636363635;endWidth=4.187983069562017;fillColor=#000000;strokeColor=#000000;strokeWidth=0.4;" parent="1" edge="1">
          <mxGeometry width="50" height="50" relative="1" as="geometry">
            <mxPoint x="-848.9599999999998" y="1831.19" as="sourcePoint" />
            <mxPoint x="-848.9599999999998" y="1814.37" as="targetPoint" />
          </mxGeometry>
        </mxCell>
        <mxCell id="lNjEDPmtAGZLamaPp14r-353" value="&lt;font style=&quot;font-size: 12px;&quot;&gt;[s]&lt;/font&gt;" style="rounded=1;whiteSpace=wrap;html=1;fontFamily=Times New Roman;fontSize=2;strokeColor=#000000;rotation=0;container=0;align=center;verticalAlign=middle;horizontal=1;spacingTop=-2;fillColor=#FECCCB;strokeWidth=0.2;" parent="1" vertex="1">
          <mxGeometry x="-871.62" y="1836.19" width="44" height="20" as="geometry" />
        </mxCell>
        <mxCell id="lNjEDPmtAGZLamaPp14r-354" value="&lt;font style=&quot;font-size: 12px;&quot;&gt;disease&lt;/font&gt;" style="rounded=1;whiteSpace=wrap;html=1;fontFamily=Times New Roman;fontSize=2;strokeColor=#000000;rotation=0;container=0;align=center;verticalAlign=middle;horizontal=1;spacingTop=-2;fillColor=#FECCCB;strokeWidth=0.2;" parent="1" vertex="1">
          <mxGeometry x="-812.75" y="1836.37" width="44" height="20" as="geometry" />
        </mxCell>
        <mxCell id="lNjEDPmtAGZLamaPp14r-355" value="&lt;font style=&quot;font-size: 12px;&quot;&gt;is&lt;/font&gt;" style="rounded=1;whiteSpace=wrap;html=1;fontFamily=Times New Roman;fontSize=2;strokeColor=#000000;rotation=0;container=0;align=center;verticalAlign=middle;horizontal=1;spacingTop=-2;fillColor=#FECCCB;strokeWidth=0.2;" parent="1" vertex="1">
          <mxGeometry x="-753" y="1836.19" width="44" height="20" as="geometry" />
        </mxCell>
        <mxCell id="lNjEDPmtAGZLamaPp14r-356" value="&lt;font style=&quot;font-size: 12px;&quot;&gt;common&lt;/font&gt;" style="rounded=1;whiteSpace=wrap;html=1;fontFamily=Times New Roman;fontSize=2;strokeColor=#000000;rotation=0;container=0;align=center;verticalAlign=middle;horizontal=1;spacingTop=-2;fillColor=#FECCCB;strokeWidth=0.2;" parent="1" vertex="1">
          <mxGeometry x="-634.74" y="1836.19" width="44" height="20" as="geometry" />
        </mxCell>
        <mxCell id="lNjEDPmtAGZLamaPp14r-357" value="&lt;font style=&quot;font-size: 12px;&quot;&gt;enemy&lt;/font&gt;" style="rounded=1;whiteSpace=wrap;html=1;fontFamily=Times New Roman;fontSize=2;strokeColor=#000000;rotation=0;container=0;align=center;verticalAlign=middle;horizontal=1;spacingTop=-2;fillColor=#FECCCB;strokeWidth=0.2;" parent="1" vertex="1">
          <mxGeometry x="-571.75" y="1835.19" width="44" height="20" as="geometry" />
        </mxCell>
        <mxCell id="lNjEDPmtAGZLamaPp14r-362" value="" style="shape=cross;whiteSpace=wrap;html=1;size=0.17183098591549423;fillColor=#000000;strokeColor=#000000;strokeWidth=0.4;" parent="1" vertex="1">
          <mxGeometry x="-854.2500000000001" y="1901.37" width="10" height="10" as="geometry" />
        </mxCell>
        <mxCell id="lNjEDPmtAGZLamaPp14r-363" value="" style="shape=cross;whiteSpace=wrap;html=1;size=0.17183098591549423;fillColor=#000000;strokeColor=#000000;strokeWidth=0.4;" parent="1" vertex="1">
          <mxGeometry x="-796.2500000000001" y="1901.37" width="10" height="10" as="geometry" />
        </mxCell>
        <mxCell id="lNjEDPmtAGZLamaPp14r-364" value="" style="shape=cross;whiteSpace=wrap;html=1;size=0.17183098591549423;fillColor=#000000;strokeColor=#000000;strokeWidth=0.4;" parent="1" vertex="1">
          <mxGeometry x="-736.5000000000001" y="1901.37" width="10" height="10" as="geometry" />
        </mxCell>
        <mxCell id="lNjEDPmtAGZLamaPp14r-365" value="" style="shape=cross;whiteSpace=wrap;html=1;size=0.17183098591549423;fillColor=#000000;strokeColor=#000000;strokeWidth=0.4;" parent="1" vertex="1">
          <mxGeometry x="-678.2400000000001" y="1901.37" width="10" height="10" as="geometry" />
        </mxCell>
        <mxCell id="lNjEDPmtAGZLamaPp14r-366" value="" style="shape=cross;whiteSpace=wrap;html=1;size=0.17183098591549423;fillColor=#000000;strokeColor=#000000;strokeWidth=0.4;" parent="1" vertex="1">
          <mxGeometry x="-618.2400000000001" y="1901.37" width="10" height="10" as="geometry" />
        </mxCell>
        <mxCell id="lNjEDPmtAGZLamaPp14r-367" value="" style="shape=cross;whiteSpace=wrap;html=1;size=0.17183098591549423;fillColor=#000000;strokeColor=#000000;strokeWidth=0.4;" parent="1" vertex="1">
          <mxGeometry x="-555.2500000000001" y="1901.37" width="10" height="10" as="geometry" />
        </mxCell>
        <mxCell id="lNjEDPmtAGZLamaPp14r-368" value="" style="shape=flexArrow;endArrow=classic;html=1;rounded=0;width=1.8749999999999998;endSize=1.4386363636363635;endWidth=4.187983069562017;fillColor=#000000;strokeColor=#000000;strokeWidth=0.4;" parent="1" edge="1">
          <mxGeometry width="50" height="50" relative="1" as="geometry">
            <mxPoint x="-790.1999999999998" y="1767.37" as="sourcePoint" />
            <mxPoint x="-790.1999999999998" y="1750.5500000000002" as="targetPoint" />
          </mxGeometry>
        </mxCell>
        <mxCell id="lNjEDPmtAGZLamaPp14r-369" value="" style="shape=flexArrow;endArrow=classic;html=1;rounded=0;width=1.8749999999999998;endSize=1.4386363636363635;endWidth=4.187983069562017;fillColor=#000000;strokeColor=#000000;strokeWidth=0.4;" parent="1" edge="1">
          <mxGeometry width="50" height="50" relative="1" as="geometry">
            <mxPoint x="-731.6199999999999" y="1767.37" as="sourcePoint" />
            <mxPoint x="-731.6199999999999" y="1750.5500000000002" as="targetPoint" />
          </mxGeometry>
        </mxCell>
        <mxCell id="lNjEDPmtAGZLamaPp14r-370" value="" style="shape=flexArrow;endArrow=classic;html=1;rounded=0;width=1.8749999999999998;endSize=1.4386363636363635;endWidth=4.187983069562017;fillColor=#000000;strokeColor=#000000;strokeWidth=0.4;" parent="1" edge="1">
          <mxGeometry width="50" height="50" relative="1" as="geometry">
            <mxPoint x="-672.2899999999998" y="1767.37" as="sourcePoint" />
            <mxPoint x="-672.2899999999998" y="1750.5500000000002" as="targetPoint" />
          </mxGeometry>
        </mxCell>
        <mxCell id="lNjEDPmtAGZLamaPp14r-371" value="" style="shape=flexArrow;endArrow=classic;html=1;rounded=0;width=1.8749999999999998;endSize=1.4386363636363635;endWidth=4.187983069562017;fillColor=#000000;strokeColor=#000000;strokeWidth=0.4;" parent="1" edge="1">
          <mxGeometry width="50" height="50" relative="1" as="geometry">
            <mxPoint x="-609.2899999999997" y="1767.37" as="sourcePoint" />
            <mxPoint x="-609.2899999999997" y="1750.5500000000002" as="targetPoint" />
          </mxGeometry>
        </mxCell>
        <mxCell id="lNjEDPmtAGZLamaPp14r-372" value="" style="shape=flexArrow;endArrow=classic;html=1;rounded=0;width=1.8749999999999998;endSize=1.4386363636363635;endWidth=4.187983069562017;fillColor=#000000;strokeColor=#000000;strokeWidth=0.4;" parent="1" edge="1">
          <mxGeometry width="50" height="50" relative="1" as="geometry">
            <mxPoint x="-549.2999999999997" y="1767.37" as="sourcePoint" />
            <mxPoint x="-549.2999999999997" y="1750.5500000000002" as="targetPoint" />
          </mxGeometry>
        </mxCell>
        <mxCell id="lNjEDPmtAGZLamaPp14r-373" value="" style="shape=flexArrow;endArrow=classic;html=1;rounded=0;width=1.8749999999999998;endSize=1.4386363636363635;endWidth=4.187983069562017;fillColor=#000000;strokeColor=#000000;strokeWidth=0.4;" parent="1" edge="1">
          <mxGeometry width="50" height="50" relative="1" as="geometry">
            <mxPoint x="-849.4099999999999" y="1767.37" as="sourcePoint" />
            <mxPoint x="-849.4099999999999" y="1750.5500000000002" as="targetPoint" />
          </mxGeometry>
        </mxCell>
        <mxCell id="lNjEDPmtAGZLamaPp14r-374" value="&lt;font style=&quot;font-size: 12px;&quot;&gt;the&lt;/font&gt;" style="rounded=1;whiteSpace=wrap;html=1;fontFamily=Times New Roman;fontSize=2;strokeColor=#000000;rotation=0;container=0;align=center;verticalAlign=middle;horizontal=1;spacingTop=-2;strokeWidth=0.2;fillColor=#FECCCB;" parent="1" vertex="1">
          <mxGeometry x="-753.87" y="1726.37" width="44" height="20" as="geometry" />
        </mxCell>
        <mxCell id="lNjEDPmtAGZLamaPp14r-375" value="&lt;font style=&quot;font-size: 12px;&quot;&gt;[/s]&lt;/font&gt;" style="rounded=1;whiteSpace=wrap;html=1;fontFamily=Times New Roman;fontSize=2;strokeColor=#000000;rotation=0;container=0;align=center;verticalAlign=middle;horizontal=1;spacingTop=-2;strokeWidth=0.2;fillColor=#FECCCB;" parent="1" vertex="1">
          <mxGeometry x="-572.25" y="1725.37" width="44" height="20" as="geometry" />
        </mxCell>
        <mxCell id="lNjEDPmtAGZLamaPp14r-376" value="&lt;font style=&quot;font-size: 12px;&quot;&gt;disease&lt;/font&gt;" style="rounded=1;whiteSpace=wrap;html=1;fontFamily=Times New Roman;fontSize=2;strokeColor=#000000;rotation=0;container=0;align=center;verticalAlign=middle;horizontal=1;spacingTop=-2;strokeWidth=0.2;fillColor=#FECCCB;" parent="1" vertex="1">
          <mxGeometry x="-871.75" y="1726.5500000000002" width="44" height="20" as="geometry" />
        </mxCell>
        <mxCell id="lNjEDPmtAGZLamaPp14r-377" value="&lt;font style=&quot;font-size: 12px;&quot;&gt;is&lt;/font&gt;" style="rounded=1;whiteSpace=wrap;html=1;fontFamily=Times New Roman;fontSize=2;strokeColor=#000000;rotation=0;container=0;align=center;verticalAlign=middle;horizontal=1;spacingTop=-2;strokeWidth=0.2;fillColor=#FECCCB;" parent="1" vertex="1">
          <mxGeometry x="-812" y="1726.37" width="44" height="20" as="geometry" />
        </mxCell>
        <mxCell id="lNjEDPmtAGZLamaPp14r-378" value="&lt;font style=&quot;font-size: 12px;&quot;&gt;common&lt;/font&gt;" style="rounded=1;whiteSpace=wrap;html=1;fontFamily=Times New Roman;fontSize=2;strokeColor=#000000;rotation=0;container=0;align=center;verticalAlign=middle;horizontal=1;spacingTop=-2;strokeWidth=0.2;fillColor=#FECCCB;" parent="1" vertex="1">
          <mxGeometry x="-693.74" y="1726.37" width="44" height="20" as="geometry" />
        </mxCell>
        <mxCell id="lNjEDPmtAGZLamaPp14r-379" value="&lt;font style=&quot;font-size: 12px;&quot;&gt;enemy&lt;/font&gt;" style="rounded=1;whiteSpace=wrap;html=1;fontFamily=Times New Roman;fontSize=2;strokeColor=#000000;rotation=0;container=0;align=center;verticalAlign=middle;horizontal=1;spacingTop=-2;strokeWidth=0.2;fillColor=#FECCCB;" parent="1" vertex="1">
          <mxGeometry x="-630.75" y="1725.37" width="44" height="20" as="geometry" />
        </mxCell>
        <mxCell id="lNjEDPmtAGZLamaPp14r-385" style="rounded=0;orthogonalLoop=1;jettySize=auto;html=1;entryX=1;entryY=0.5;entryDx=0;entryDy=0;fontFamily=Times New Roman;fontSize=10;fontColor=#000000;endArrow=ERzeroToMany;endFill=0;fillColor=#eeeeee;strokeColor=#36393d;exitX=0;exitY=0.5;exitDx=0;exitDy=0;" parent="1" source="lNjEDPmtAGZLamaPp14r-420" target="lNjEDPmtAGZLamaPp14r-419" edge="1">
          <mxGeometry relative="1" as="geometry">
            <mxPoint x="-945.5" y="2288.74" as="sourcePoint" />
          </mxGeometry>
        </mxCell>
        <mxCell id="lNjEDPmtAGZLamaPp14r-386" value="&lt;font style=&quot;font-size: 12px;&quot;&gt;Und&lt;/font&gt;" style="rounded=1;whiteSpace=wrap;html=1;fontFamily=Times New Roman;fontSize=2;strokeColor=#000000;rotation=0;container=0;fillColor=#FECCCB;strokeWidth=0.2;" parent="1" vertex="1">
          <mxGeometry x="-1345.5" y="2278.74" width="22" height="20" as="geometry" />
        </mxCell>
        <mxCell id="lNjEDPmtAGZLamaPp14r-387" value="&lt;font style=&quot;font-size: 12px;&quot;&gt;der&lt;/font&gt;" style="rounded=1;whiteSpace=wrap;html=1;fontFamily=Times New Roman;fontSize=2;strokeColor=#000000;rotation=0;container=0;fillColor=#FECCCB;strokeWidth=0.2;" parent="1" vertex="1">
          <mxGeometry x="-1301.5" y="2278.74" width="22" height="20" as="geometry" />
        </mxCell>
        <mxCell id="lNjEDPmtAGZLamaPp14r-388" value="&lt;font style=&quot;font-size: 12px;&quot;&gt;[/s]&lt;/font&gt;" style="rounded=1;whiteSpace=wrap;html=1;fontFamily=Times New Roman;fontSize=2;strokeColor=#000000;rotation=0;container=0;fillColor=#FECCCB;strokeWidth=0.2;" parent="1" vertex="1">
          <mxGeometry x="-1218.5" y="2278.74" width="22" height="20" as="geometry" />
        </mxCell>
        <mxCell id="lNjEDPmtAGZLamaPp14r-389" value="&lt;font style=&quot;font-size: 12px;&quot;&gt;And&lt;/font&gt;" style="rounded=1;whiteSpace=wrap;html=1;fontFamily=Times New Roman;fontSize=2;strokeColor=#000000;rotation=0;container=0;fillColor=#CCE2FF;strokeWidth=0.2;" parent="1" vertex="1">
          <mxGeometry x="-1175.5" y="2278.74" width="22" height="20" as="geometry" />
        </mxCell>
        <mxCell id="lNjEDPmtAGZLamaPp14r-390" value="&lt;font style=&quot;font-size: 12px;&quot;&gt;[c]&lt;br&gt;&lt;/font&gt;" style="rounded=1;whiteSpace=wrap;html=1;fontFamily=Times New Roman;fontSize=2;strokeColor=#000000;rotation=0;container=0;fillColor=#CCE2FF;strokeWidth=0.2;" parent="1" vertex="1">
          <mxGeometry x="-1131.5" y="2278.74" width="22" height="20" as="geometry" />
        </mxCell>
        <mxCell id="lNjEDPmtAGZLamaPp14r-391" value="&lt;font style=&quot;font-size: 12px;&quot;&gt;[/c]&lt;/font&gt;" style="rounded=1;whiteSpace=wrap;html=1;fontFamily=Times New Roman;fontSize=2;strokeColor=#000000;rotation=0;container=0;fillColor=#CCE2FF;strokeWidth=0.2;" parent="1" vertex="1">
          <mxGeometry x="-1000.5" y="2278.74" width="22" height="20" as="geometry" />
        </mxCell>
        <mxCell id="lNjEDPmtAGZLamaPp14r-392" value="&lt;font style=&quot;font-size: 12px;&quot;&gt;d&lt;/font&gt;" style="rounded=1;whiteSpace=wrap;html=1;fontFamily=Times New Roman;fontSize=2;strokeColor=#000000;rotation=0;container=0;fillColor=#CCE2FF;strokeWidth=0.2;" parent="1" vertex="1">
          <mxGeometry x="-1088.5" y="2278.74" width="22" height="20" as="geometry" />
        </mxCell>
        <mxCell id="lNjEDPmtAGZLamaPp14r-393" value="&lt;font style=&quot;font-size: 12px;&quot;&gt;i&lt;br&gt;&lt;/font&gt;" style="rounded=1;whiteSpace=wrap;html=1;fontFamily=Times New Roman;fontSize=2;strokeColor=#000000;rotation=0;container=0;fillColor=#CCE2FF;strokeWidth=0.2;" parent="1" vertex="1">
          <mxGeometry x="-1044.5" y="2278.74" width="22" height="20" as="geometry" />
        </mxCell>
        <mxCell id="lNjEDPmtAGZLamaPp14r-394" value="&lt;font style=&quot;font-size: 12px;&quot;&gt;of&lt;br&gt;&lt;/font&gt;" style="rounded=1;whiteSpace=wrap;html=1;fontFamily=Times New Roman;fontSize=2;strokeColor=#000000;rotation=0;container=0;fillColor=#CCE2FF;strokeWidth=0.2;" parent="1" vertex="1">
          <mxGeometry x="-957.5" y="2278.74" width="22" height="20" as="geometry" />
        </mxCell>
        <mxCell id="lNjEDPmtAGZLamaPp14r-395" value="&lt;font style=&quot;font-size: 12px;&quot;&gt;...&lt;/font&gt;" style="rounded=1;whiteSpace=wrap;html=1;fontFamily=Times New Roman;fontSize=2;strokeColor=#000000;rotation=0;container=0;fillColor=#FECCCB;strokeWidth=0.2;" parent="1" vertex="1">
          <mxGeometry x="-1262.5" y="2278.74" width="22" height="20" as="geometry" />
        </mxCell>
        <mxCell id="lNjEDPmtAGZLamaPp14r-396" value="&lt;font style=&quot;font-size: 12px;&quot;&gt;...&lt;br&gt;&lt;/font&gt;" style="rounded=1;whiteSpace=wrap;html=1;fontFamily=Times New Roman;fontSize=2;strokeColor=#000000;rotation=0;container=0;fillColor=#CCE2FF;strokeWidth=0.2;" parent="1" vertex="1">
          <mxGeometry x="-913.5" y="2278.74" width="22" height="20" as="geometry" />
        </mxCell>
        <mxCell id="lNjEDPmtAGZLamaPp14r-397" value="&lt;span style=&quot;font-size: 12px;&quot;&gt;0&lt;/span&gt;" style="rounded=1;whiteSpace=wrap;html=1;fontFamily=Times New Roman;fontSize=2;strokeColor=#000000;rotation=0;container=0;fillColor=#FECCCB;strokeWidth=0.2;" parent="1" vertex="1">
          <mxGeometry x="-1345.5" y="2319.74" width="22" height="20" as="geometry" />
        </mxCell>
        <mxCell id="lNjEDPmtAGZLamaPp14r-398" value="&lt;font style=&quot;font-size: 12px;&quot;&gt;1&lt;/font&gt;" style="rounded=1;whiteSpace=wrap;html=1;fontFamily=Times New Roman;fontSize=2;strokeColor=#000000;rotation=0;container=0;fillColor=#FECCCB;strokeWidth=0.2;" parent="1" vertex="1">
          <mxGeometry x="-1301.5" y="2319.74" width="22" height="20" as="geometry" />
        </mxCell>
        <mxCell id="lNjEDPmtAGZLamaPp14r-399" value="&lt;font style=&quot;font-size: 12px;&quot;&gt;8&lt;/font&gt;" style="rounded=1;whiteSpace=wrap;html=1;fontFamily=Times New Roman;fontSize=2;strokeColor=#000000;rotation=0;container=0;fillColor=#FECCCB;strokeWidth=0.2;" parent="1" vertex="1">
          <mxGeometry x="-1218.5" y="2320.74" width="22" height="20" as="geometry" />
        </mxCell>
        <mxCell id="lNjEDPmtAGZLamaPp14r-400" value="&lt;font style=&quot;font-size: 12px;&quot;&gt;0&lt;/font&gt;" style="rounded=1;whiteSpace=wrap;html=1;fontFamily=Times New Roman;fontSize=2;strokeColor=#000000;rotation=0;container=0;fillColor=#CCE2FF;strokeWidth=0.2;" parent="1" vertex="1">
          <mxGeometry x="-1175.5" y="2320.74" width="22" height="20" as="geometry" />
        </mxCell>
        <mxCell id="lNjEDPmtAGZLamaPp14r-401" value="&lt;font style=&quot;font-size: 12px;&quot;&gt;1&lt;/font&gt;" style="rounded=1;whiteSpace=wrap;html=1;fontFamily=Times New Roman;fontSize=2;strokeColor=#000000;rotation=0;container=0;fillColor=#CCE2FF;strokeWidth=0.2;" parent="1" vertex="1">
          <mxGeometry x="-1131.5" y="2320.74" width="22" height="20" as="geometry" />
        </mxCell>
        <mxCell id="lNjEDPmtAGZLamaPp14r-402" value="&lt;font style=&quot;font-size: 12px;&quot;&gt;4&lt;/font&gt;" style="rounded=1;whiteSpace=wrap;html=1;fontFamily=Times New Roman;fontSize=2;strokeColor=#000000;rotation=0;container=0;fillColor=#CCE2FF;strokeWidth=0.2;" parent="1" vertex="1">
          <mxGeometry x="-1000.5" y="2320.74" width="22" height="20" as="geometry" />
        </mxCell>
        <mxCell id="lNjEDPmtAGZLamaPp14r-403" value="&lt;font style=&quot;font-size: 12px;&quot;&gt;2&lt;/font&gt;" style="rounded=1;whiteSpace=wrap;html=1;fontFamily=Times New Roman;fontSize=2;strokeColor=#000000;rotation=0;container=0;fillColor=#CCE2FF;strokeWidth=0.2;" parent="1" vertex="1">
          <mxGeometry x="-1088.5" y="2320.74" width="22" height="20" as="geometry" />
        </mxCell>
        <mxCell id="lNjEDPmtAGZLamaPp14r-404" value="&lt;font style=&quot;font-size: 12px;&quot;&gt;3&lt;br&gt;&lt;/font&gt;" style="rounded=1;whiteSpace=wrap;html=1;fontFamily=Times New Roman;fontSize=2;strokeColor=#000000;rotation=0;container=0;fillColor=#CCE2FF;strokeWidth=0.2;" parent="1" vertex="1">
          <mxGeometry x="-1044.5" y="2320.74" width="22" height="20" as="geometry" />
        </mxCell>
        <mxCell id="lNjEDPmtAGZLamaPp14r-405" value="&lt;font style=&quot;font-size: 12px;&quot;&gt;5&lt;br&gt;&lt;/font&gt;" style="rounded=1;whiteSpace=wrap;html=1;fontFamily=Times New Roman;fontSize=2;strokeColor=#000000;rotation=0;container=0;fillColor=#CCE2FF;strokeWidth=0.2;" parent="1" vertex="1">
          <mxGeometry x="-957.5" y="2320.74" width="22" height="20" as="geometry" />
        </mxCell>
        <mxCell id="lNjEDPmtAGZLamaPp14r-406" value="&lt;font style=&quot;font-size: 12px;&quot;&gt;...&lt;/font&gt;" style="rounded=1;whiteSpace=wrap;html=1;fontFamily=Times New Roman;fontSize=2;strokeColor=#000000;rotation=0;container=0;fillColor=#FECCCB;strokeWidth=0.2;" parent="1" vertex="1">
          <mxGeometry x="-1262.5" y="2320.74" width="22" height="20" as="geometry" />
        </mxCell>
        <mxCell id="lNjEDPmtAGZLamaPp14r-407" value="&lt;font style=&quot;font-size: 12px;&quot;&gt;...&lt;br&gt;&lt;/font&gt;" style="rounded=1;whiteSpace=wrap;html=1;fontFamily=Times New Roman;fontSize=2;strokeColor=#000000;rotation=0;container=0;fillColor=#CCE2FF;strokeWidth=0.2;" parent="1" vertex="1">
          <mxGeometry x="-913.5" y="2320.74" width="22" height="20" as="geometry" />
        </mxCell>
        <mxCell id="lNjEDPmtAGZLamaPp14r-408" value="&lt;span style=&quot;font-size: 12px;&quot;&gt;de&lt;/span&gt;" style="rounded=1;whiteSpace=wrap;html=1;fontFamily=Times New Roman;fontSize=2;strokeColor=#000000;rotation=0;container=0;strokeWidth=0.2;fillColor=#FECCCB;shadow=0;glass=0;" parent="1" vertex="1">
          <mxGeometry x="-1345.5" y="2361.74" width="22" height="20" as="geometry" />
        </mxCell>
        <mxCell id="lNjEDPmtAGZLamaPp14r-409" value="&lt;font style=&quot;font-size: 12px;&quot;&gt;de&lt;/font&gt;" style="rounded=1;whiteSpace=wrap;html=1;fontFamily=Times New Roman;fontSize=2;strokeColor=#000000;rotation=0;container=0;strokeWidth=0.2;fillColor=#FECCCB;shadow=0;glass=0;" parent="1" vertex="1">
          <mxGeometry x="-1301.5" y="2361.74" width="22" height="20" as="geometry" />
        </mxCell>
        <mxCell id="lNjEDPmtAGZLamaPp14r-410" value="&lt;font style=&quot;font-size: 12px;&quot;&gt;de&lt;/font&gt;" style="rounded=1;whiteSpace=wrap;html=1;fontFamily=Times New Roman;fontSize=2;strokeColor=#000000;rotation=0;container=0;strokeWidth=0.2;fillColor=#FECCCB;shadow=0;glass=0;" parent="1" vertex="1">
          <mxGeometry x="-1218.5" y="2361.74" width="22" height="20" as="geometry" />
        </mxCell>
        <mxCell id="lNjEDPmtAGZLamaPp14r-411" value="&lt;font style=&quot;font-size: 12px;&quot;&gt;en&lt;/font&gt;" style="rounded=1;whiteSpace=wrap;html=1;fontFamily=Times New Roman;fontSize=2;strokeColor=#000000;rotation=0;container=0;strokeWidth=0.2;fillColor=#CCE2FF;shadow=0;glass=0;" parent="1" vertex="1">
          <mxGeometry x="-1175.5" y="2361.74" width="22" height="20" as="geometry" />
        </mxCell>
        <mxCell id="lNjEDPmtAGZLamaPp14r-412" value="&lt;font style=&quot;font-size: 12px;&quot;&gt;en&lt;/font&gt;" style="rounded=1;whiteSpace=wrap;html=1;fontFamily=Times New Roman;fontSize=2;strokeColor=#000000;rotation=0;container=0;strokeWidth=0.2;fillColor=#CCE2FF;shadow=0;glass=0;" parent="1" vertex="1">
          <mxGeometry x="-1131.5" y="2361.74" width="22" height="20" as="geometry" />
        </mxCell>
        <mxCell id="lNjEDPmtAGZLamaPp14r-413" value="&lt;font style=&quot;font-size: 12px;&quot;&gt;en&lt;/font&gt;" style="rounded=1;whiteSpace=wrap;html=1;fontFamily=Times New Roman;fontSize=2;strokeColor=#000000;rotation=0;container=0;strokeWidth=0.2;fillColor=#CCE2FF;shadow=0;glass=0;" parent="1" vertex="1">
          <mxGeometry x="-1000.5" y="2361.74" width="22" height="20" as="geometry" />
        </mxCell>
        <mxCell id="lNjEDPmtAGZLamaPp14r-414" value="&lt;font style=&quot;font-size: 12px;&quot;&gt;en&lt;/font&gt;" style="rounded=1;whiteSpace=wrap;html=1;fontFamily=Times New Roman;fontSize=2;strokeColor=#000000;rotation=0;container=0;strokeWidth=0.2;fillColor=#CCE2FF;shadow=0;glass=0;" parent="1" vertex="1">
          <mxGeometry x="-1088.5" y="2361.74" width="22" height="20" as="geometry" />
        </mxCell>
        <mxCell id="lNjEDPmtAGZLamaPp14r-415" value="&lt;font style=&quot;font-size: 12px;&quot;&gt;en&lt;br&gt;&lt;/font&gt;" style="rounded=1;whiteSpace=wrap;html=1;fontFamily=Times New Roman;fontSize=2;strokeColor=#000000;rotation=0;container=0;strokeWidth=0.2;fillColor=#CCE2FF;shadow=0;glass=0;" parent="1" vertex="1">
          <mxGeometry x="-1044.5" y="2361.74" width="22" height="20" as="geometry" />
        </mxCell>
        <mxCell id="lNjEDPmtAGZLamaPp14r-416" value="&lt;font style=&quot;font-size: 12px;&quot;&gt;en&lt;br&gt;&lt;/font&gt;" style="rounded=1;whiteSpace=wrap;html=1;fontFamily=Times New Roman;fontSize=2;strokeColor=#000000;rotation=0;container=0;strokeWidth=0.2;fillColor=#CCE2FF;shadow=0;glass=0;" parent="1" vertex="1">
          <mxGeometry x="-957.5" y="2362.74" width="22" height="20" as="geometry" />
        </mxCell>
        <mxCell id="lNjEDPmtAGZLamaPp14r-417" value="&lt;span style=&quot;font-size: 12px;&quot;&gt;...&lt;/span&gt;" style="rounded=1;whiteSpace=wrap;html=1;fontFamily=Times New Roman;fontSize=2;strokeColor=#000000;rotation=0;container=0;strokeWidth=0.2;fillColor=#FECCCB;shadow=0;glass=0;" parent="1" vertex="1">
          <mxGeometry x="-1262.5" y="2362.74" width="22" height="20" as="geometry" />
        </mxCell>
        <mxCell id="lNjEDPmtAGZLamaPp14r-418" value="&lt;font style=&quot;font-size: 12px;&quot;&gt;...&lt;br&gt;&lt;/font&gt;" style="rounded=1;whiteSpace=wrap;html=1;fontFamily=Times New Roman;fontSize=2;strokeColor=#000000;rotation=0;container=0;strokeWidth=0.2;fillColor=#CCE2FF;shadow=0;glass=0;" parent="1" vertex="1">
          <mxGeometry x="-913.5" y="2362.74" width="22" height="20" as="geometry" />
        </mxCell>
        <mxCell id="lNjEDPmtAGZLamaPp14r-419" value="&lt;b&gt;Input Encoder&lt;/b&gt;" style="rounded=1;whiteSpace=wrap;html=1;fontSize=15;fillColor=#eeeeee;strokeColor=#36393d;strokeWidth=0.5;fillStyle=auto;fontFamily=Times New Roman;opacity=70;" parent="1" vertex="1">
          <mxGeometry x="-1351.75" y="2218.74" width="466.25" height="36.75" as="geometry" />
        </mxCell>
        <mxCell id="lNjEDPmtAGZLamaPp14r-420" value="&lt;b&gt;Target Decoder&lt;/b&gt;" style="rounded=1;whiteSpace=wrap;html=1;fontSize=15;fillColor=#eeeeee;strokeColor=#36393d;strokeWidth=0.5;fillStyle=auto;fontFamily=Times New Roman;opacity=80;" parent="1" vertex="1">
          <mxGeometry x="-832.5" y="2218.74" width="350" height="37.75" as="geometry" />
        </mxCell>
        <mxCell id="lNjEDPmtAGZLamaPp14r-421" value="Token&lt;br&gt;Embeddings" style="text;html=1;align=center;verticalAlign=middle;resizable=0;points=[];autosize=1;strokeColor=none;fillColor=none;" parent="1" vertex="1">
          <mxGeometry x="-1435.5" y="2266.56" width="90" height="40" as="geometry" />
        </mxCell>
        <mxCell id="lNjEDPmtAGZLamaPp14r-422" value="Position&lt;br&gt;Embeddings" style="text;html=1;align=center;verticalAlign=middle;resizable=0;points=[];autosize=1;strokeColor=none;fillColor=none;" parent="1" vertex="1">
          <mxGeometry x="-1437.5" y="2308.74" width="90" height="40" as="geometry" />
        </mxCell>
        <mxCell id="lNjEDPmtAGZLamaPp14r-423" value="Language&lt;br&gt;Embeddings" style="text;html=1;align=center;verticalAlign=middle;resizable=0;points=[];autosize=1;strokeColor=none;fillColor=none;" parent="1" vertex="1">
          <mxGeometry x="-1437.75" y="2349.74" width="90" height="40" as="geometry" />
        </mxCell>
        <mxCell id="lNjEDPmtAGZLamaPp14r-424" value="" style="shape=cross;whiteSpace=wrap;html=1;size=0.17183098591549423;fillColor=#000000;strokeColor=#000000;" parent="1" vertex="1">
          <mxGeometry x="-1341.63" y="2305.74" width="10" height="10" as="geometry" />
        </mxCell>
        <mxCell id="lNjEDPmtAGZLamaPp14r-425" value="" style="shape=cross;whiteSpace=wrap;html=1;size=0.17183098591549423;fillColor=#000000;strokeColor=#000000;" parent="1" vertex="1">
          <mxGeometry x="-1341.63" y="2345.74" width="10" height="10" as="geometry" />
        </mxCell>
        <mxCell id="lNjEDPmtAGZLamaPp14r-426" value="" style="shape=cross;whiteSpace=wrap;html=1;size=0.17183098591549423;fillColor=#000000;strokeColor=#000000;" parent="1" vertex="1">
          <mxGeometry x="-1296.6200000000001" y="2305.74" width="10" height="10" as="geometry" />
        </mxCell>
        <mxCell id="lNjEDPmtAGZLamaPp14r-427" value="" style="shape=cross;whiteSpace=wrap;html=1;size=0.17183098591549423;fillColor=#000000;strokeColor=#000000;" parent="1" vertex="1">
          <mxGeometry x="-1298.5" y="2345.74" width="10" height="10" as="geometry" />
        </mxCell>
        <mxCell id="lNjEDPmtAGZLamaPp14r-428" value="" style="shape=cross;whiteSpace=wrap;html=1;size=0.17183098591549423;fillColor=#000000;strokeColor=#000000;" parent="1" vertex="1">
          <mxGeometry x="-1257.6200000000001" y="2305.74" width="10" height="10" as="geometry" />
        </mxCell>
        <mxCell id="lNjEDPmtAGZLamaPp14r-429" value="" style="shape=cross;whiteSpace=wrap;html=1;size=0.17183098591549423;fillColor=#000000;strokeColor=#000000;" parent="1" vertex="1">
          <mxGeometry x="-1255.5" y="2346.74" width="10" height="10" as="geometry" />
        </mxCell>
        <mxCell id="lNjEDPmtAGZLamaPp14r-430" value="" style="shape=cross;whiteSpace=wrap;html=1;size=0.17183098591549423;fillColor=#000000;strokeColor=#000000;" parent="1" vertex="1">
          <mxGeometry x="-1213.6200000000001" y="2305.74" width="10" height="10" as="geometry" />
        </mxCell>
        <mxCell id="lNjEDPmtAGZLamaPp14r-431" value="" style="shape=cross;whiteSpace=wrap;html=1;size=0.17183098591549423;fillColor=#000000;strokeColor=#000000;" parent="1" vertex="1">
          <mxGeometry x="-1211.5" y="2346.74" width="10" height="10" as="geometry" />
        </mxCell>
        <mxCell id="lNjEDPmtAGZLamaPp14r-432" value="" style="shape=cross;whiteSpace=wrap;html=1;size=0.17183098591549423;fillColor=#000000;strokeColor=#000000;" parent="1" vertex="1">
          <mxGeometry x="-1170.6200000000001" y="2305.74" width="10" height="10" as="geometry" />
        </mxCell>
        <mxCell id="lNjEDPmtAGZLamaPp14r-433" value="" style="shape=cross;whiteSpace=wrap;html=1;size=0.17183098591549423;fillColor=#000000;strokeColor=#000000;" parent="1" vertex="1">
          <mxGeometry x="-1168.5" y="2346.74" width="10" height="10" as="geometry" />
        </mxCell>
        <mxCell id="lNjEDPmtAGZLamaPp14r-434" value="" style="shape=cross;whiteSpace=wrap;html=1;size=0.17183098591549423;fillColor=#000000;strokeColor=#000000;" parent="1" vertex="1">
          <mxGeometry x="-1126.6200000000001" y="2305.74" width="10" height="10" as="geometry" />
        </mxCell>
        <mxCell id="lNjEDPmtAGZLamaPp14r-435" value="" style="shape=cross;whiteSpace=wrap;html=1;size=0.17183098591549423;fillColor=#000000;strokeColor=#000000;" parent="1" vertex="1">
          <mxGeometry x="-1125.5" y="2346.74" width="10" height="10" as="geometry" />
        </mxCell>
        <mxCell id="lNjEDPmtAGZLamaPp14r-436" value="" style="shape=cross;whiteSpace=wrap;html=1;size=0.17183098591549423;fillColor=#000000;strokeColor=#000000;" parent="1" vertex="1">
          <mxGeometry x="-1083.6200000000001" y="2305.74" width="10" height="10" as="geometry" />
        </mxCell>
        <mxCell id="lNjEDPmtAGZLamaPp14r-437" value="" style="shape=cross;whiteSpace=wrap;html=1;size=0.17183098591549423;fillColor=#000000;strokeColor=#000000;" parent="1" vertex="1">
          <mxGeometry x="-1081.5" y="2346.74" width="10" height="10" as="geometry" />
        </mxCell>
        <mxCell id="lNjEDPmtAGZLamaPp14r-438" value="" style="shape=cross;whiteSpace=wrap;html=1;size=0.17183098591549423;fillColor=#000000;strokeColor=#000000;" parent="1" vertex="1">
          <mxGeometry x="-1039.6200000000001" y="2305.74" width="10" height="10" as="geometry" />
        </mxCell>
        <mxCell id="lNjEDPmtAGZLamaPp14r-439" value="" style="shape=cross;whiteSpace=wrap;html=1;size=0.17183098591549423;fillColor=#000000;strokeColor=#000000;" parent="1" vertex="1">
          <mxGeometry x="-1038.5" y="2346.74" width="10" height="10" as="geometry" />
        </mxCell>
        <mxCell id="lNjEDPmtAGZLamaPp14r-440" value="" style="shape=cross;whiteSpace=wrap;html=1;size=0.17183098591549423;fillColor=#000000;strokeColor=#000000;" parent="1" vertex="1">
          <mxGeometry x="-995.6200000000001" y="2305.74" width="10" height="10" as="geometry" />
        </mxCell>
        <mxCell id="lNjEDPmtAGZLamaPp14r-441" value="" style="shape=cross;whiteSpace=wrap;html=1;size=0.17183098591549423;fillColor=#000000;strokeColor=#000000;" parent="1" vertex="1">
          <mxGeometry x="-995.5" y="2346.74" width="10" height="10" as="geometry" />
        </mxCell>
        <mxCell id="lNjEDPmtAGZLamaPp14r-442" value="" style="shape=cross;whiteSpace=wrap;html=1;size=0.17183098591549423;fillColor=#000000;strokeColor=#000000;" parent="1" vertex="1">
          <mxGeometry x="-952.6200000000001" y="2305.74" width="10" height="10" as="geometry" />
        </mxCell>
        <mxCell id="lNjEDPmtAGZLamaPp14r-443" value="" style="shape=cross;whiteSpace=wrap;html=1;size=0.17183098591549423;fillColor=#000000;strokeColor=#000000;" parent="1" vertex="1">
          <mxGeometry x="-951.5" y="2346.74" width="10" height="10" as="geometry" />
        </mxCell>
        <mxCell id="lNjEDPmtAGZLamaPp14r-444" value="" style="shape=cross;whiteSpace=wrap;html=1;size=0.17183098591549423;fillColor=#000000;strokeColor=#000000;" parent="1" vertex="1">
          <mxGeometry x="-908.6200000000001" y="2305.74" width="10" height="10" as="geometry" />
        </mxCell>
        <mxCell id="lNjEDPmtAGZLamaPp14r-445" value="" style="shape=cross;whiteSpace=wrap;html=1;size=0.17183098591549423;fillColor=#000000;strokeColor=#000000;" parent="1" vertex="1">
          <mxGeometry x="-908.6200000000001" y="2346.74" width="10" height="10" as="geometry" />
        </mxCell>
        <mxCell id="lNjEDPmtAGZLamaPp14r-446" value="&lt;font style=&quot;font-size: 12px;&quot;&gt;the&lt;/font&gt;" style="rounded=1;whiteSpace=wrap;html=1;fontFamily=Times New Roman;fontSize=2;strokeColor=#000000;rotation=0;container=0;align=center;verticalAlign=middle;horizontal=1;spacingTop=-2;fillColor=#CCE2FF;strokeWidth=0.2;" parent="1" vertex="1">
          <mxGeometry x="-652.62" y="2280.56" width="44" height="20" as="geometry" />
        </mxCell>
        <mxCell id="lNjEDPmtAGZLamaPp14r-447" value="&lt;span style=&quot;font-size: 12px;&quot;&gt;0&lt;/span&gt;" style="rounded=1;whiteSpace=wrap;html=1;fontFamily=Times New Roman;fontSize=2;strokeColor=#000000;rotation=0;container=0;fillColor=#CCE2FF;strokeWidth=0.2;" parent="1" vertex="1">
          <mxGeometry x="-829.5" y="2319.74" width="44" height="20" as="geometry" />
        </mxCell>
        <mxCell id="lNjEDPmtAGZLamaPp14r-448" value="&lt;font style=&quot;font-size: 12px;&quot;&gt;1&lt;/font&gt;" style="rounded=1;whiteSpace=wrap;html=1;fontFamily=Times New Roman;fontSize=2;strokeColor=#000000;rotation=0;container=0;fillColor=#CCE2FF;strokeWidth=0.2;" parent="1" vertex="1">
          <mxGeometry x="-772.37" y="2319.74" width="44" height="20" as="geometry" />
        </mxCell>
        <mxCell id="lNjEDPmtAGZLamaPp14r-449" value="&lt;font style=&quot;font-size: 12px;&quot;&gt;2&lt;/font&gt;" style="rounded=1;whiteSpace=wrap;html=1;fontFamily=Times New Roman;fontSize=2;strokeColor=#000000;rotation=0;container=0;fillColor=#CCE2FF;strokeWidth=0.2;" parent="1" vertex="1">
          <mxGeometry x="-710.75" y="2319.74" width="44" height="20" as="geometry" />
        </mxCell>
        <mxCell id="lNjEDPmtAGZLamaPp14r-450" value="&lt;font style=&quot;font-size: 12px;&quot;&gt;4&lt;/font&gt;" style="rounded=1;whiteSpace=wrap;html=1;fontFamily=Times New Roman;fontSize=2;strokeColor=#000000;rotation=0;container=0;fillColor=#CCE2FF;strokeWidth=0.2;" parent="1" vertex="1">
          <mxGeometry x="-593.5" y="2319.74" width="44" height="20" as="geometry" />
        </mxCell>
        <mxCell id="lNjEDPmtAGZLamaPp14r-451" value="&lt;font style=&quot;font-size: 12px;&quot;&gt;5&lt;/font&gt;" style="rounded=1;whiteSpace=wrap;html=1;fontFamily=Times New Roman;fontSize=2;strokeColor=#000000;rotation=0;container=0;fillColor=#CCE2FF;strokeWidth=0.2;" parent="1" vertex="1">
          <mxGeometry x="-529.5" y="2319.74" width="44" height="20" as="geometry" />
        </mxCell>
        <mxCell id="lNjEDPmtAGZLamaPp14r-452" value="&lt;font style=&quot;font-size: 12px;&quot;&gt;3&lt;/font&gt;" style="rounded=1;whiteSpace=wrap;html=1;fontFamily=Times New Roman;fontSize=2;strokeColor=#000000;rotation=0;container=0;fillColor=#CCE2FF;strokeWidth=0.2;" parent="1" vertex="1">
          <mxGeometry x="-652.62" y="2319.74" width="44" height="20" as="geometry" />
        </mxCell>
        <mxCell id="lNjEDPmtAGZLamaPp14r-453" value="&lt;span style=&quot;font-size: 12px;&quot;&gt;en&lt;/span&gt;" style="rounded=1;whiteSpace=wrap;html=1;fontFamily=Times New Roman;fontSize=2;strokeColor=#000000;rotation=0;container=0;strokeWidth=0.2;fillColor=#CCE2FF;shadow=0;glass=0;" parent="1" vertex="1">
          <mxGeometry x="-829.5" y="2362.74" width="44" height="20" as="geometry" />
        </mxCell>
        <mxCell id="lNjEDPmtAGZLamaPp14r-454" value="&lt;font style=&quot;font-size: 12px;&quot;&gt;en&lt;/font&gt;" style="rounded=1;whiteSpace=wrap;html=1;fontFamily=Times New Roman;fontSize=2;strokeColor=#000000;rotation=0;container=0;strokeWidth=0.2;fillColor=#CCE2FF;shadow=0;glass=0;" parent="1" vertex="1">
          <mxGeometry x="-772.37" y="2362.74" width="44" height="20" as="geometry" />
        </mxCell>
        <mxCell id="lNjEDPmtAGZLamaPp14r-455" value="&lt;font style=&quot;font-size: 12px;&quot;&gt;en&lt;/font&gt;" style="rounded=1;whiteSpace=wrap;html=1;fontFamily=Times New Roman;fontSize=2;strokeColor=#000000;rotation=0;container=0;strokeWidth=0.2;fillColor=#CCE2FF;shadow=0;glass=0;" parent="1" vertex="1">
          <mxGeometry x="-711.25" y="2362.74" width="44" height="20" as="geometry" />
        </mxCell>
        <mxCell id="lNjEDPmtAGZLamaPp14r-456" value="&lt;font style=&quot;font-size: 12px;&quot;&gt;en&lt;/font&gt;" style="rounded=1;whiteSpace=wrap;html=1;fontFamily=Times New Roman;fontSize=2;strokeColor=#000000;rotation=0;container=0;strokeWidth=0.2;fillColor=#CCE2FF;shadow=0;glass=0;" parent="1" vertex="1">
          <mxGeometry x="-592.49" y="2362.74" width="44" height="20" as="geometry" />
        </mxCell>
        <mxCell id="lNjEDPmtAGZLamaPp14r-457" value="&lt;font style=&quot;font-size: 12px;&quot;&gt;en&lt;/font&gt;" style="rounded=1;whiteSpace=wrap;html=1;fontFamily=Times New Roman;fontSize=2;strokeColor=#000000;rotation=0;container=0;strokeWidth=0.2;fillColor=#CCE2FF;shadow=0;glass=0;" parent="1" vertex="1">
          <mxGeometry x="-529.5" y="2362.74" width="44" height="20" as="geometry" />
        </mxCell>
        <mxCell id="lNjEDPmtAGZLamaPp14r-458" value="&lt;span style=&quot;font-size: 12px;&quot;&gt;en&lt;/span&gt;" style="rounded=1;whiteSpace=wrap;html=1;fontFamily=Times New Roman;fontSize=2;strokeColor=#000000;rotation=0;container=0;strokeWidth=0.2;fillColor=#CCE2FF;shadow=0;glass=0;" parent="1" vertex="1">
          <mxGeometry x="-652.62" y="2362.74" width="44" height="20" as="geometry" />
        </mxCell>
        <mxCell id="lNjEDPmtAGZLamaPp14r-459" value="" style="shape=cross;whiteSpace=wrap;html=1;size=0.17183098591549423;fillColor=#000000;strokeColor=#000000;" parent="1" vertex="1">
          <mxGeometry x="-811.5000000000001" y="2304.74" width="10" height="10" as="geometry" />
        </mxCell>
        <mxCell id="lNjEDPmtAGZLamaPp14r-460" value="" style="shape=cross;whiteSpace=wrap;html=1;size=0.17183098591549423;fillColor=#000000;strokeColor=#000000;" parent="1" vertex="1">
          <mxGeometry x="-753.5000000000001" y="2305.56" width="10" height="10" as="geometry" />
        </mxCell>
        <mxCell id="lNjEDPmtAGZLamaPp14r-461" value="" style="shape=cross;whiteSpace=wrap;html=1;size=0.17183098591549423;fillColor=#000000;strokeColor=#000000;" parent="1" vertex="1">
          <mxGeometry x="-693.7500000000001" y="2304.74" width="10" height="10" as="geometry" />
        </mxCell>
        <mxCell id="lNjEDPmtAGZLamaPp14r-462" value="" style="shape=cross;whiteSpace=wrap;html=1;size=0.17183098591549423;fillColor=#000000;strokeColor=#000000;" parent="1" vertex="1">
          <mxGeometry x="-635.4900000000001" y="2305.56" width="10" height="10" as="geometry" />
        </mxCell>
        <mxCell id="lNjEDPmtAGZLamaPp14r-463" value="" style="shape=cross;whiteSpace=wrap;html=1;size=0.17183098591549423;fillColor=#000000;strokeColor=#000000;" parent="1" vertex="1">
          <mxGeometry x="-575.4900000000001" y="2305.56" width="10" height="10" as="geometry" />
        </mxCell>
        <mxCell id="lNjEDPmtAGZLamaPp14r-464" value="" style="shape=cross;whiteSpace=wrap;html=1;size=0.17183098591549423;fillColor=#000000;strokeColor=#000000;" parent="1" vertex="1">
          <mxGeometry x="-512.5000000000001" y="2304.74" width="10" height="10" as="geometry" />
        </mxCell>
        <mxCell id="lNjEDPmtAGZLamaPp14r-465" value="" style="shape=flexArrow;endArrow=classic;html=1;rounded=0;width=1.8749999999999998;endSize=1.4386363636363635;endWidth=4.187983069562017;fillColor=#000000;strokeColor=#000000;" parent="1" edge="1">
          <mxGeometry width="50" height="50" relative="1" as="geometry">
            <mxPoint x="-1335.7" y="2272.56" as="sourcePoint" />
            <mxPoint x="-1335.7" y="2255.74" as="targetPoint" />
          </mxGeometry>
        </mxCell>
        <mxCell id="lNjEDPmtAGZLamaPp14r-466" value="" style="shape=flexArrow;endArrow=classic;html=1;rounded=0;width=1.8749999999999998;endSize=1.4386363636363635;endWidth=4.187983069562017;fillColor=#000000;strokeColor=#000000;" parent="1" edge="1">
          <mxGeometry width="50" height="50" relative="1" as="geometry">
            <mxPoint x="-1291.78" y="2273.56" as="sourcePoint" />
            <mxPoint x="-1291.78" y="2256.74" as="targetPoint" />
          </mxGeometry>
        </mxCell>
        <mxCell id="lNjEDPmtAGZLamaPp14r-467" value="" style="shape=flexArrow;endArrow=classic;html=1;rounded=0;width=1.8749999999999998;endSize=1.4386363636363635;endWidth=4.187983069562017;fillColor=#000000;strokeColor=#000000;" parent="1" edge="1">
          <mxGeometry width="50" height="50" relative="1" as="geometry">
            <mxPoint x="-1252.78" y="2273.56" as="sourcePoint" />
            <mxPoint x="-1252.78" y="2256.74" as="targetPoint" />
          </mxGeometry>
        </mxCell>
        <mxCell id="lNjEDPmtAGZLamaPp14r-468" value="" style="shape=flexArrow;endArrow=classic;html=1;rounded=0;width=1.8749999999999998;endSize=1.4386363636363635;endWidth=4.187983069562017;fillColor=#000000;strokeColor=#000000;" parent="1" edge="1">
          <mxGeometry width="50" height="50" relative="1" as="geometry">
            <mxPoint x="-1208.33" y="2273.74" as="sourcePoint" />
            <mxPoint x="-1208.33" y="2256.92" as="targetPoint" />
          </mxGeometry>
        </mxCell>
        <mxCell id="lNjEDPmtAGZLamaPp14r-469" value="" style="shape=flexArrow;endArrow=classic;html=1;rounded=0;width=1.8749999999999998;endSize=1.4386363636363635;endWidth=4.187983069562017;fillColor=#000000;strokeColor=#000000;" parent="1" edge="1">
          <mxGeometry width="50" height="50" relative="1" as="geometry">
            <mxPoint x="-1164.4099999999999" y="2274.74" as="sourcePoint" />
            <mxPoint x="-1164.4099999999999" y="2257.92" as="targetPoint" />
          </mxGeometry>
        </mxCell>
        <mxCell id="lNjEDPmtAGZLamaPp14r-470" value="" style="shape=flexArrow;endArrow=classic;html=1;rounded=0;width=1.8749999999999998;endSize=1.4386363636363635;endWidth=4.187983069562017;fillColor=#000000;strokeColor=#000000;" parent="1" edge="1">
          <mxGeometry width="50" height="50" relative="1" as="geometry">
            <mxPoint x="-1121.4099999999999" y="2274.74" as="sourcePoint" />
            <mxPoint x="-1121.4099999999999" y="2257.92" as="targetPoint" />
          </mxGeometry>
        </mxCell>
        <mxCell id="lNjEDPmtAGZLamaPp14r-471" value="" style="shape=flexArrow;endArrow=classic;html=1;rounded=0;width=1.8749999999999998;endSize=1.4386363636363635;endWidth=4.187983069562017;fillColor=#000000;strokeColor=#000000;" parent="1" edge="1">
          <mxGeometry width="50" height="50" relative="1" as="geometry">
            <mxPoint x="-1077.4099999999999" y="2274.74" as="sourcePoint" />
            <mxPoint x="-1077.4099999999999" y="2257.92" as="targetPoint" />
          </mxGeometry>
        </mxCell>
        <mxCell id="lNjEDPmtAGZLamaPp14r-472" value="" style="shape=flexArrow;endArrow=classic;html=1;rounded=0;width=1.8749999999999998;endSize=1.4386363636363635;endWidth=4.187983069562017;fillColor=#000000;strokeColor=#000000;" parent="1" edge="1">
          <mxGeometry width="50" height="50" relative="1" as="geometry">
            <mxPoint x="-1034.8799999999999" y="2274.74" as="sourcePoint" />
            <mxPoint x="-1034.8799999999999" y="2257.92" as="targetPoint" />
          </mxGeometry>
        </mxCell>
        <mxCell id="lNjEDPmtAGZLamaPp14r-473" value="" style="shape=flexArrow;endArrow=classic;html=1;rounded=0;width=1.8749999999999998;endSize=1.4386363636363635;endWidth=4.187983069562017;fillColor=#000000;strokeColor=#000000;" parent="1" edge="1">
          <mxGeometry width="50" height="50" relative="1" as="geometry">
            <mxPoint x="-990.9599999999998" y="2274.74" as="sourcePoint" />
            <mxPoint x="-990.9599999999998" y="2257.92" as="targetPoint" />
          </mxGeometry>
        </mxCell>
        <mxCell id="lNjEDPmtAGZLamaPp14r-474" value="" style="shape=flexArrow;endArrow=classic;html=1;rounded=0;width=1.8749999999999998;endSize=1.4386363636363635;endWidth=4.187983069562017;fillColor=#000000;strokeColor=#000000;" parent="1" edge="1">
          <mxGeometry width="50" height="50" relative="1" as="geometry">
            <mxPoint x="-947.9599999999998" y="2274.74" as="sourcePoint" />
            <mxPoint x="-947.9599999999998" y="2257.92" as="targetPoint" />
          </mxGeometry>
        </mxCell>
        <mxCell id="lNjEDPmtAGZLamaPp14r-475" value="" style="shape=flexArrow;endArrow=classic;html=1;rounded=0;width=1.8749999999999998;endSize=1.4386363636363635;endWidth=4.187983069562017;fillColor=#000000;strokeColor=#000000;" parent="1" edge="1">
          <mxGeometry width="50" height="50" relative="1" as="geometry">
            <mxPoint x="-903.9599999999998" y="2274.74" as="sourcePoint" />
            <mxPoint x="-903.9599999999998" y="2257.92" as="targetPoint" />
          </mxGeometry>
        </mxCell>
        <mxCell id="lNjEDPmtAGZLamaPp14r-476" value="" style="shape=flexArrow;endArrow=classic;html=1;rounded=0;width=1.8749999999999998;endSize=1.4386363636363635;endWidth=4.187983069562017;fillColor=#000000;strokeColor=#000000;" parent="1" edge="1">
          <mxGeometry width="50" height="50" relative="1" as="geometry">
            <mxPoint x="-744.4999999999998" y="2275.56" as="sourcePoint" />
            <mxPoint x="-744.4999999999998" y="2258.74" as="targetPoint" />
          </mxGeometry>
        </mxCell>
        <mxCell id="lNjEDPmtAGZLamaPp14r-477" value="" style="shape=flexArrow;endArrow=classic;html=1;rounded=0;width=1.8749999999999998;endSize=1.4386363636363635;endWidth=4.187983069562017;fillColor=#000000;strokeColor=#000000;" parent="1" edge="1">
          <mxGeometry width="50" height="50" relative="1" as="geometry">
            <mxPoint x="-684.9199999999998" y="2275.56" as="sourcePoint" />
            <mxPoint x="-684.9199999999998" y="2258.74" as="targetPoint" />
          </mxGeometry>
        </mxCell>
        <mxCell id="lNjEDPmtAGZLamaPp14r-478" value="" style="shape=flexArrow;endArrow=classic;html=1;rounded=0;width=1.8749999999999998;endSize=1.4386363636363635;endWidth=4.187983069562017;fillColor=#000000;strokeColor=#000000;" parent="1" edge="1">
          <mxGeometry width="50" height="50" relative="1" as="geometry">
            <mxPoint x="-630.5899999999998" y="2275.56" as="sourcePoint" />
            <mxPoint x="-630.5899999999998" y="2258.74" as="targetPoint" />
          </mxGeometry>
        </mxCell>
        <mxCell id="lNjEDPmtAGZLamaPp14r-479" value="" style="shape=flexArrow;endArrow=classic;html=1;rounded=0;width=1.8749999999999998;endSize=1.4386363636363635;endWidth=4.187983069562017;fillColor=#000000;strokeColor=#000000;" parent="1" edge="1">
          <mxGeometry width="50" height="50" relative="1" as="geometry">
            <mxPoint x="-570.5899999999997" y="2275.56" as="sourcePoint" />
            <mxPoint x="-570.5899999999997" y="2258.74" as="targetPoint" />
          </mxGeometry>
        </mxCell>
        <mxCell id="lNjEDPmtAGZLamaPp14r-480" value="" style="shape=flexArrow;endArrow=classic;html=1;rounded=0;width=1.8749999999999998;endSize=1.4386363636363635;endWidth=4.187983069562017;fillColor=#000000;strokeColor=#000000;" parent="1" edge="1">
          <mxGeometry width="50" height="50" relative="1" as="geometry">
            <mxPoint x="-507.5999999999997" y="2275.56" as="sourcePoint" />
            <mxPoint x="-507.5999999999997" y="2258.74" as="targetPoint" />
          </mxGeometry>
        </mxCell>
        <mxCell id="lNjEDPmtAGZLamaPp14r-481" value="" style="shape=flexArrow;endArrow=classic;html=1;rounded=0;width=1.8749999999999998;endSize=1.4386363636363635;endWidth=4.187983069562017;fillColor=#000000;strokeColor=#000000;" parent="1" edge="1">
          <mxGeometry width="50" height="50" relative="1" as="geometry">
            <mxPoint x="-806.7099999999998" y="2275.56" as="sourcePoint" />
            <mxPoint x="-806.7099999999998" y="2258.74" as="targetPoint" />
          </mxGeometry>
        </mxCell>
        <mxCell id="lNjEDPmtAGZLamaPp14r-482" value="&lt;font style=&quot;font-size: 12px;&quot;&gt;[s]&lt;/font&gt;" style="rounded=1;whiteSpace=wrap;html=1;fontFamily=Times New Roman;fontSize=2;strokeColor=#000000;rotation=0;container=0;align=center;verticalAlign=middle;horizontal=1;spacingTop=-2;fillColor=#CCE2FF;strokeWidth=0.2;" parent="1" vertex="1">
          <mxGeometry x="-829.37" y="2280.56" width="44" height="20" as="geometry" />
        </mxCell>
        <mxCell id="lNjEDPmtAGZLamaPp14r-483" value="&lt;font style=&quot;font-size: 12px;&quot;&gt;disease&lt;/font&gt;" style="rounded=1;whiteSpace=wrap;html=1;fontFamily=Times New Roman;fontSize=2;strokeColor=#000000;rotation=0;container=0;align=center;verticalAlign=middle;horizontal=1;spacingTop=-2;fillColor=#CCE2FF;strokeWidth=0.2;" parent="1" vertex="1">
          <mxGeometry x="-770.5" y="2280.74" width="44" height="20" as="geometry" />
        </mxCell>
        <mxCell id="lNjEDPmtAGZLamaPp14r-484" value="&lt;font style=&quot;font-size: 12px;&quot;&gt;is&lt;/font&gt;" style="rounded=1;whiteSpace=wrap;html=1;fontFamily=Times New Roman;fontSize=2;strokeColor=#000000;rotation=0;container=0;align=center;verticalAlign=middle;horizontal=1;spacingTop=-2;fillColor=#CCE2FF;strokeWidth=0.2;" parent="1" vertex="1">
          <mxGeometry x="-710.75" y="2280.56" width="44" height="20" as="geometry" />
        </mxCell>
        <mxCell id="lNjEDPmtAGZLamaPp14r-485" value="&lt;font style=&quot;font-size: 12px;&quot;&gt;common&lt;/font&gt;" style="rounded=1;whiteSpace=wrap;html=1;fontFamily=Times New Roman;fontSize=2;strokeColor=#000000;rotation=0;container=0;align=center;verticalAlign=middle;horizontal=1;spacingTop=-2;fillColor=#CCE2FF;strokeWidth=0.2;" parent="1" vertex="1">
          <mxGeometry x="-592.49" y="2280.56" width="44" height="20" as="geometry" />
        </mxCell>
        <mxCell id="lNjEDPmtAGZLamaPp14r-486" value="&lt;font style=&quot;font-size: 12px;&quot;&gt;enemy&lt;/font&gt;" style="rounded=1;whiteSpace=wrap;html=1;fontFamily=Times New Roman;fontSize=2;strokeColor=#000000;rotation=0;container=0;align=center;verticalAlign=middle;horizontal=1;spacingTop=-2;fillColor=#CCE2FF;strokeWidth=0.2;" parent="1" vertex="1">
          <mxGeometry x="-529.5" y="2279.56" width="44" height="20" as="geometry" />
        </mxCell>
        <mxCell id="lNjEDPmtAGZLamaPp14r-487" value="" style="shape=cross;whiteSpace=wrap;html=1;size=0.17183098591549423;fillColor=#000000;strokeColor=#000000;" parent="1" vertex="1">
          <mxGeometry x="-812.0000000000001" y="2345.74" width="10" height="10" as="geometry" />
        </mxCell>
        <mxCell id="lNjEDPmtAGZLamaPp14r-488" value="" style="shape=cross;whiteSpace=wrap;html=1;size=0.17183098591549423;fillColor=#000000;strokeColor=#000000;" parent="1" vertex="1">
          <mxGeometry x="-754.0000000000001" y="2345.74" width="10" height="10" as="geometry" />
        </mxCell>
        <mxCell id="lNjEDPmtAGZLamaPp14r-489" value="" style="shape=cross;whiteSpace=wrap;html=1;size=0.17183098591549423;fillColor=#000000;strokeColor=#000000;" parent="1" vertex="1">
          <mxGeometry x="-694.2500000000001" y="2345.74" width="10" height="10" as="geometry" />
        </mxCell>
        <mxCell id="lNjEDPmtAGZLamaPp14r-490" value="" style="shape=cross;whiteSpace=wrap;html=1;size=0.17183098591549423;fillColor=#000000;strokeColor=#000000;" parent="1" vertex="1">
          <mxGeometry x="-635.9900000000001" y="2345.74" width="10" height="10" as="geometry" />
        </mxCell>
        <mxCell id="lNjEDPmtAGZLamaPp14r-491" value="" style="shape=cross;whiteSpace=wrap;html=1;size=0.17183098591549423;fillColor=#000000;strokeColor=#000000;" parent="1" vertex="1">
          <mxGeometry x="-575.9900000000001" y="2345.74" width="10" height="10" as="geometry" />
        </mxCell>
        <mxCell id="lNjEDPmtAGZLamaPp14r-492" value="" style="shape=cross;whiteSpace=wrap;html=1;size=0.17183098591549423;fillColor=#000000;strokeColor=#000000;" parent="1" vertex="1">
          <mxGeometry x="-513.0000000000001" y="2345.74" width="10" height="10" as="geometry" />
        </mxCell>
        <mxCell id="lNjEDPmtAGZLamaPp14r-493" value="" style="shape=flexArrow;endArrow=classic;html=1;rounded=0;width=1.8749999999999998;endSize=1.4386363636363635;endWidth=4.187983069562017;fillColor=#000000;strokeColor=#000000;" parent="1" edge="1">
          <mxGeometry width="50" height="50" relative="1" as="geometry">
            <mxPoint x="-747.9499999999998" y="2211.74" as="sourcePoint" />
            <mxPoint x="-747.9499999999998" y="2194.92" as="targetPoint" />
          </mxGeometry>
        </mxCell>
        <mxCell id="lNjEDPmtAGZLamaPp14r-494" value="" style="shape=flexArrow;endArrow=classic;html=1;rounded=0;width=1.8749999999999998;endSize=1.4386363636363635;endWidth=4.187983069562017;fillColor=#000000;strokeColor=#000000;" parent="1" edge="1">
          <mxGeometry width="50" height="50" relative="1" as="geometry">
            <mxPoint x="-689.3699999999999" y="2211.74" as="sourcePoint" />
            <mxPoint x="-689.3699999999999" y="2194.92" as="targetPoint" />
          </mxGeometry>
        </mxCell>
        <mxCell id="lNjEDPmtAGZLamaPp14r-495" value="" style="shape=flexArrow;endArrow=classic;html=1;rounded=0;width=1.8749999999999998;endSize=1.4386363636363635;endWidth=4.187983069562017;fillColor=#000000;strokeColor=#000000;" parent="1" edge="1">
          <mxGeometry width="50" height="50" relative="1" as="geometry">
            <mxPoint x="-630.0399999999998" y="2211.74" as="sourcePoint" />
            <mxPoint x="-630.0399999999998" y="2194.92" as="targetPoint" />
          </mxGeometry>
        </mxCell>
        <mxCell id="lNjEDPmtAGZLamaPp14r-496" value="" style="shape=flexArrow;endArrow=classic;html=1;rounded=0;width=1.8749999999999998;endSize=1.4386363636363635;endWidth=4.187983069562017;fillColor=#000000;strokeColor=#000000;" parent="1" edge="1">
          <mxGeometry width="50" height="50" relative="1" as="geometry">
            <mxPoint x="-567.0399999999997" y="2211.74" as="sourcePoint" />
            <mxPoint x="-567.0399999999997" y="2194.92" as="targetPoint" />
          </mxGeometry>
        </mxCell>
        <mxCell id="lNjEDPmtAGZLamaPp14r-497" value="" style="shape=flexArrow;endArrow=classic;html=1;rounded=0;width=1.8749999999999998;endSize=1.4386363636363635;endWidth=4.187983069562017;fillColor=#000000;strokeColor=#000000;" parent="1" edge="1">
          <mxGeometry width="50" height="50" relative="1" as="geometry">
            <mxPoint x="-507.0499999999997" y="2211.74" as="sourcePoint" />
            <mxPoint x="-507.0499999999997" y="2194.92" as="targetPoint" />
          </mxGeometry>
        </mxCell>
        <mxCell id="lNjEDPmtAGZLamaPp14r-498" value="" style="shape=flexArrow;endArrow=classic;html=1;rounded=0;width=1.8749999999999998;endSize=1.4386363636363635;endWidth=4.187983069562017;fillColor=#000000;strokeColor=#000000;" parent="1" edge="1">
          <mxGeometry width="50" height="50" relative="1" as="geometry">
            <mxPoint x="-807.1599999999999" y="2211.74" as="sourcePoint" />
            <mxPoint x="-807.1599999999999" y="2194.92" as="targetPoint" />
          </mxGeometry>
        </mxCell>
        <mxCell id="lNjEDPmtAGZLamaPp14r-499" value="&lt;font style=&quot;font-size: 12px;&quot;&gt;the&lt;/font&gt;" style="rounded=1;whiteSpace=wrap;html=1;fontFamily=Times New Roman;fontSize=2;strokeColor=#000000;rotation=0;container=0;align=center;verticalAlign=middle;horizontal=1;spacingTop=-2;strokeWidth=0.2;fillColor=#CCE2FF;" parent="1" vertex="1">
          <mxGeometry x="-711.62" y="2170.74" width="44" height="20" as="geometry" />
        </mxCell>
        <mxCell id="lNjEDPmtAGZLamaPp14r-500" value="&lt;font style=&quot;font-size: 12px;&quot;&gt;[/s]&lt;/font&gt;" style="rounded=1;whiteSpace=wrap;html=1;fontFamily=Times New Roman;fontSize=2;strokeColor=#000000;rotation=0;container=0;align=center;verticalAlign=middle;horizontal=1;spacingTop=-2;strokeWidth=0.2;fillColor=#CCE2FF;" parent="1" vertex="1">
          <mxGeometry x="-530" y="2169.74" width="44" height="20" as="geometry" />
        </mxCell>
        <mxCell id="lNjEDPmtAGZLamaPp14r-501" value="&lt;font style=&quot;font-size: 12px;&quot;&gt;disease&lt;/font&gt;" style="rounded=1;whiteSpace=wrap;html=1;fontFamily=Times New Roman;fontSize=2;strokeColor=#000000;rotation=0;container=0;align=center;verticalAlign=middle;horizontal=1;spacingTop=-2;strokeWidth=0.2;fillColor=#CCE2FF;" parent="1" vertex="1">
          <mxGeometry x="-829.5" y="2170.92" width="44" height="20" as="geometry" />
        </mxCell>
        <mxCell id="lNjEDPmtAGZLamaPp14r-502" value="&lt;font style=&quot;font-size: 12px;&quot;&gt;is&lt;/font&gt;" style="rounded=1;whiteSpace=wrap;html=1;fontFamily=Times New Roman;fontSize=2;strokeColor=#000000;rotation=0;container=0;align=center;verticalAlign=middle;horizontal=1;spacingTop=-2;strokeWidth=0.2;fillColor=#CCE2FF;" parent="1" vertex="1">
          <mxGeometry x="-769.75" y="2170.74" width="44" height="20" as="geometry" />
        </mxCell>
        <mxCell id="lNjEDPmtAGZLamaPp14r-503" value="&lt;font style=&quot;font-size: 12px;&quot;&gt;common&lt;/font&gt;" style="rounded=1;whiteSpace=wrap;html=1;fontFamily=Times New Roman;fontSize=2;strokeColor=#000000;rotation=0;container=0;align=center;verticalAlign=middle;horizontal=1;spacingTop=-2;strokeWidth=0.2;fillColor=#CCE2FF;" parent="1" vertex="1">
          <mxGeometry x="-651.49" y="2170.74" width="44" height="20" as="geometry" />
        </mxCell>
        <mxCell id="lNjEDPmtAGZLamaPp14r-504" value="&lt;font style=&quot;font-size: 12px;&quot;&gt;enemy&lt;/font&gt;" style="rounded=1;whiteSpace=wrap;html=1;fontFamily=Times New Roman;fontSize=2;strokeColor=#000000;rotation=0;container=0;align=center;verticalAlign=middle;horizontal=1;spacingTop=-2;strokeWidth=0.2;fillColor=#CCE2FF;" parent="1" vertex="1">
          <mxGeometry x="-588.5" y="2169.74" width="44" height="20" as="geometry" />
        </mxCell>
        <mxCell id="pCGolmidNcYzlRykDUOS-3" value="&lt;span style=&quot;font-size: 12px;&quot;&gt;hypo 1&lt;/span&gt;" style="rounded=1;whiteSpace=wrap;html=1;fontFamily=Times New Roman;fontSize=2;strokeColor=#000000;rotation=0;container=0;fillColor=#CCE2FF;strokeWidth=0.2;" parent="1" vertex="1">
          <mxGeometry x="-1357.37" y="1417" width="60" height="20" as="geometry" />
        </mxCell>
        <mxCell id="pCGolmidNcYzlRykDUOS-4" value="&lt;span style=&quot;font-size: 12px;&quot;&gt;hypo 2&lt;/span&gt;" style="rounded=1;whiteSpace=wrap;html=1;fontFamily=Times New Roman;fontSize=2;strokeColor=#000000;rotation=0;container=0;fillColor=#CCE2FF;strokeWidth=0.2;" parent="1" vertex="1">
          <mxGeometry x="-1357.37" y="1440" width="60" height="20" as="geometry" />
        </mxCell>
        <mxCell id="pCGolmidNcYzlRykDUOS-5" value="&lt;span style=&quot;font-size: 12px;&quot;&gt;hypo3&lt;/span&gt;" style="rounded=1;whiteSpace=wrap;html=1;fontFamily=Times New Roman;fontSize=2;strokeColor=#000000;rotation=0;container=0;fillColor=#CCE2FF;strokeWidth=0.2;" parent="1" vertex="1">
          <mxGeometry x="-1357.37" y="1463" width="60" height="20" as="geometry" />
        </mxCell>
        <mxCell id="pCGolmidNcYzlRykDUOS-6" value="&lt;span style=&quot;font-size: 12px;&quot;&gt;hypo 1&lt;/span&gt;" style="rounded=1;whiteSpace=wrap;html=1;fontFamily=Times New Roman;fontSize=2;strokeColor=#000000;rotation=0;container=0;fillColor=#CCE2FF;strokeWidth=0.2;" parent="1" vertex="1">
          <mxGeometry x="-1357.37" y="1529" width="60" height="20" as="geometry" />
        </mxCell>
        <mxCell id="pCGolmidNcYzlRykDUOS-7" value="&lt;span style=&quot;font-size: 12px;&quot;&gt;hypo 2&lt;/span&gt;" style="rounded=1;whiteSpace=wrap;html=1;fontFamily=Times New Roman;fontSize=2;strokeColor=#000000;rotation=0;container=0;fillColor=#CCE2FF;strokeWidth=0.2;" parent="1" vertex="1">
          <mxGeometry x="-1357.37" y="1552" width="60" height="20" as="geometry" />
        </mxCell>
        <mxCell id="pCGolmidNcYzlRykDUOS-8" value="&lt;span style=&quot;font-size: 12px;&quot;&gt;hypo3&lt;/span&gt;" style="rounded=1;whiteSpace=wrap;html=1;fontFamily=Times New Roman;fontSize=2;strokeColor=#000000;rotation=0;container=0;fillColor=#CCE2FF;strokeWidth=0.2;" parent="1" vertex="1">
          <mxGeometry x="-1357.37" y="1575" width="60" height="20" as="geometry" />
        </mxCell>
        <mxCell id="pCGolmidNcYzlRykDUOS-11" value="Beam 0" style="text;html=1;align=center;verticalAlign=middle;resizable=0;points=[];autosize=1;strokeColor=none;fillColor=none;fontFamily=Comic Sans MS;sketch=1;curveFitting=1;jiggle=2;" parent="1" vertex="1">
          <mxGeometry x="-1358.37" y="1498" width="60" height="30" as="geometry" />
        </mxCell>
        <mxCell id="pCGolmidNcYzlRykDUOS-12" value="Beam 1" style="text;html=1;align=center;verticalAlign=middle;resizable=0;points=[];autosize=1;strokeColor=none;fillColor=none;labelBackgroundColor=none;labelBorderColor=none;fontFamily=Comic Sans MS;" parent="1" vertex="1">
          <mxGeometry x="-1357.37" y="1384" width="60" height="30" as="geometry" />
        </mxCell>
        <mxCell id="pCGolmidNcYzlRykDUOS-17" value="" style="rounded=1;whiteSpace=wrap;html=1;" parent="1" vertex="1">
          <mxGeometry x="-1174.87" y="1412" width="80" height="80" as="geometry" />
        </mxCell>
        <mxCell id="pCGolmidNcYzlRykDUOS-18" value="&lt;span style=&quot;font-size: 12px;&quot;&gt;hypo 1&lt;/span&gt;" style="rounded=1;whiteSpace=wrap;html=1;fontFamily=Times New Roman;fontSize=2;strokeColor=#000000;rotation=0;container=0;fillColor=#CCE2FF;strokeWidth=0.2;" parent="1" vertex="1">
          <mxGeometry x="-1163.87" y="1420" width="60" height="20" as="geometry" />
        </mxCell>
        <mxCell id="pCGolmidNcYzlRykDUOS-19" value="&lt;span style=&quot;font-size: 12px;&quot;&gt;hypo 2&lt;/span&gt;" style="rounded=1;whiteSpace=wrap;html=1;fontFamily=Times New Roman;fontSize=2;strokeColor=#000000;rotation=0;container=0;fillColor=#CCE2FF;strokeWidth=0.2;" parent="1" vertex="1">
          <mxGeometry x="-1163.87" y="1443" width="60" height="20" as="geometry" />
        </mxCell>
        <mxCell id="pCGolmidNcYzlRykDUOS-20" value="&lt;span style=&quot;font-size: 12px;&quot;&gt;hypo3&lt;/span&gt;" style="rounded=1;whiteSpace=wrap;html=1;fontFamily=Times New Roman;fontSize=2;strokeColor=#000000;rotation=0;container=0;fillColor=#CCE2FF;strokeWidth=0.2;" parent="1" vertex="1">
          <mxGeometry x="-1163.87" y="1466" width="60" height="20" as="geometry" />
        </mxCell>
        <mxCell id="pCGolmidNcYzlRykDUOS-21" value="Beam 1" style="text;html=1;align=center;verticalAlign=middle;resizable=0;points=[];autosize=1;strokeColor=none;fillColor=none;labelBackgroundColor=none;labelBorderColor=none;fontFamily=Comic Sans MS;" parent="1" vertex="1">
          <mxGeometry x="-1163.87" y="1387" width="60" height="30" as="geometry" />
        </mxCell>
        <mxCell id="pCGolmidNcYzlRykDUOS-22" value="" style="rounded=1;whiteSpace=wrap;html=1;" parent="1" vertex="1">
          <mxGeometry x="-1173.87" y="1520" width="80" height="80" as="geometry" />
        </mxCell>
        <mxCell id="pCGolmidNcYzlRykDUOS-23" value="&lt;span style=&quot;font-size: 12px;&quot;&gt;hypo 1&lt;/span&gt;" style="rounded=1;whiteSpace=wrap;html=1;fontFamily=Times New Roman;fontSize=2;strokeColor=#000000;rotation=0;container=0;fillColor=#CCE2FF;strokeWidth=0.2;" parent="1" vertex="1">
          <mxGeometry x="-1164.12" y="1527" width="60" height="20" as="geometry" />
        </mxCell>
        <mxCell id="pCGolmidNcYzlRykDUOS-24" value="&lt;span style=&quot;font-size: 12px;&quot;&gt;hypo 2&lt;/span&gt;" style="rounded=1;whiteSpace=wrap;html=1;fontFamily=Times New Roman;fontSize=2;strokeColor=#000000;rotation=0;container=0;fillColor=#CCE2FF;strokeWidth=0.2;" parent="1" vertex="1">
          <mxGeometry x="-1164.12" y="1550" width="60" height="20" as="geometry" />
        </mxCell>
        <mxCell id="pCGolmidNcYzlRykDUOS-25" value="&lt;span style=&quot;font-size: 12px;&quot;&gt;hypo3&lt;/span&gt;" style="rounded=1;whiteSpace=wrap;html=1;fontFamily=Times New Roman;fontSize=2;strokeColor=#000000;rotation=0;container=0;fillColor=#CCE2FF;strokeWidth=0.2;" parent="1" vertex="1">
          <mxGeometry x="-1164.12" y="1573" width="60" height="20" as="geometry" />
        </mxCell>
        <mxCell id="pCGolmidNcYzlRykDUOS-27" value="&lt;font style=&quot;font-size: 18px;&quot;&gt;...&lt;/font&gt;" style="text;html=1;strokeColor=none;fillColor=none;align=center;verticalAlign=middle;whiteSpace=wrap;rounded=0;" parent="1" vertex="1">
          <mxGeometry x="-1087.12" y="1568" width="60" height="30" as="geometry" />
        </mxCell>
        <mxCell id="pCGolmidNcYzlRykDUOS-28" value="" style="rounded=1;whiteSpace=wrap;html=1;" parent="1" vertex="1">
          <mxGeometry x="-1015.12" y="1412" width="80" height="80" as="geometry" />
        </mxCell>
        <mxCell id="pCGolmidNcYzlRykDUOS-29" value="&lt;span style=&quot;font-size: 12px;&quot;&gt;hypo 1&lt;/span&gt;" style="rounded=1;whiteSpace=wrap;html=1;fontFamily=Times New Roman;fontSize=2;strokeColor=#000000;rotation=0;container=0;fillColor=#CCE2FF;strokeWidth=0.2;" parent="1" vertex="1">
          <mxGeometry x="-1004.12" y="1420" width="60" height="20" as="geometry" />
        </mxCell>
        <mxCell id="pCGolmidNcYzlRykDUOS-30" value="&lt;span style=&quot;font-size: 12px;&quot;&gt;hypo 2&lt;/span&gt;" style="rounded=1;whiteSpace=wrap;html=1;fontFamily=Times New Roman;fontSize=2;strokeColor=#000000;rotation=0;container=0;fillColor=#CCE2FF;strokeWidth=0.2;" parent="1" vertex="1">
          <mxGeometry x="-1004.12" y="1443" width="60" height="20" as="geometry" />
        </mxCell>
        <mxCell id="pCGolmidNcYzlRykDUOS-31" value="&lt;span style=&quot;font-size: 12px;&quot;&gt;hypo3&lt;/span&gt;" style="rounded=1;whiteSpace=wrap;html=1;fontFamily=Times New Roman;fontSize=2;strokeColor=#000000;rotation=0;container=0;fillColor=#CCE2FF;strokeWidth=0.2;" parent="1" vertex="1">
          <mxGeometry x="-1004.12" y="1466" width="60" height="20" as="geometry" />
        </mxCell>
        <mxCell id="pCGolmidNcYzlRykDUOS-32" value="Beam 1" style="text;html=1;align=center;verticalAlign=middle;resizable=0;points=[];autosize=1;strokeColor=none;fillColor=none;labelBackgroundColor=none;labelBorderColor=none;fontFamily=Comic Sans MS;" parent="1" vertex="1">
          <mxGeometry x="-1004.12" y="1387" width="60" height="30" as="geometry" />
        </mxCell>
        <mxCell id="pCGolmidNcYzlRykDUOS-33" value="" style="rounded=1;whiteSpace=wrap;html=1;" parent="1" vertex="1">
          <mxGeometry x="-1015.12" y="1520" width="80" height="80" as="geometry" />
        </mxCell>
        <mxCell id="pCGolmidNcYzlRykDUOS-34" value="&lt;span style=&quot;font-size: 12px;&quot;&gt;hypo 1&lt;/span&gt;" style="rounded=1;whiteSpace=wrap;html=1;fontFamily=Times New Roman;fontSize=2;strokeColor=#000000;rotation=0;container=0;fillColor=#CCE2FF;strokeWidth=0.2;" parent="1" vertex="1">
          <mxGeometry x="-1004.37" y="1527" width="60" height="20" as="geometry" />
        </mxCell>
        <mxCell id="pCGolmidNcYzlRykDUOS-35" value="&lt;span style=&quot;font-size: 12px;&quot;&gt;hypo 2&lt;/span&gt;" style="rounded=1;whiteSpace=wrap;html=1;fontFamily=Times New Roman;fontSize=2;strokeColor=#000000;rotation=0;container=0;fillColor=#CCE2FF;strokeWidth=0.2;" parent="1" vertex="1">
          <mxGeometry x="-1004.37" y="1550" width="60" height="20" as="geometry" />
        </mxCell>
        <mxCell id="pCGolmidNcYzlRykDUOS-36" value="&lt;span style=&quot;font-size: 12px;&quot;&gt;hypo3&lt;/span&gt;" style="rounded=1;whiteSpace=wrap;html=1;fontFamily=Times New Roman;fontSize=2;strokeColor=#000000;rotation=0;container=0;fillColor=#CCE2FF;strokeWidth=0.2;" parent="1" vertex="1">
          <mxGeometry x="-1004.37" y="1573" width="60" height="20" as="geometry" />
        </mxCell>
        <mxCell id="pCGolmidNcYzlRykDUOS-40" value="Beam 0" style="text;html=1;align=center;verticalAlign=middle;resizable=0;points=[];autosize=1;strokeColor=none;fillColor=none;fontFamily=Comic Sans MS;sketch=1;curveFitting=1;jiggle=2;" parent="1" vertex="1">
          <mxGeometry x="-1162.37" y="1496" width="60" height="30" as="geometry" />
        </mxCell>
        <mxCell id="pCGolmidNcYzlRykDUOS-41" value="Beam 0" style="text;html=1;align=center;verticalAlign=middle;resizable=0;points=[];autosize=1;strokeColor=none;fillColor=none;fontFamily=Comic Sans MS;sketch=1;curveFitting=1;jiggle=2;" parent="1" vertex="1">
          <mxGeometry x="-1004.37" y="1496" width="60" height="30" as="geometry" />
        </mxCell>
        <mxCell id="pCGolmidNcYzlRykDUOS-49" value="" style="rounded=1;whiteSpace=wrap;html=1;" parent="1" vertex="1">
          <mxGeometry x="-1367.37" y="1300" width="80" height="80" as="geometry" />
        </mxCell>
        <mxCell id="pCGolmidNcYzlRykDUOS-50" value="&lt;span style=&quot;font-size: 12px;&quot;&gt;hypo 1&lt;/span&gt;" style="rounded=1;whiteSpace=wrap;html=1;fontFamily=Times New Roman;fontSize=2;strokeColor=#000000;rotation=0;container=0;fillColor=#CCE2FF;strokeWidth=0.2;" parent="1" vertex="1">
          <mxGeometry x="-1357.37" y="1308" width="60" height="20" as="geometry" />
        </mxCell>
        <mxCell id="pCGolmidNcYzlRykDUOS-51" value="&lt;span style=&quot;font-size: 12px;&quot;&gt;hypo 2&lt;/span&gt;" style="rounded=1;whiteSpace=wrap;html=1;fontFamily=Times New Roman;fontSize=2;strokeColor=#000000;rotation=0;container=0;fillColor=#CCE2FF;strokeWidth=0.2;" parent="1" vertex="1">
          <mxGeometry x="-1357.37" y="1331" width="60" height="20" as="geometry" />
        </mxCell>
        <mxCell id="pCGolmidNcYzlRykDUOS-52" value="&lt;span style=&quot;font-size: 12px;&quot;&gt;hypo3&lt;/span&gt;" style="rounded=1;whiteSpace=wrap;html=1;fontFamily=Times New Roman;fontSize=2;strokeColor=#000000;rotation=0;container=0;fillColor=#CCE2FF;strokeWidth=0.2;" parent="1" vertex="1">
          <mxGeometry x="-1357.37" y="1354" width="60" height="20" as="geometry" />
        </mxCell>
        <mxCell id="pCGolmidNcYzlRykDUOS-53" value="Beam 2" style="text;html=1;align=center;verticalAlign=middle;resizable=0;points=[];autosize=1;strokeColor=none;fillColor=none;labelBackgroundColor=none;labelBorderColor=none;fontFamily=Comic Sans MS;" parent="1" vertex="1">
          <mxGeometry x="-1357.37" y="1275" width="60" height="30" as="geometry" />
        </mxCell>
        <mxCell id="pCGolmidNcYzlRykDUOS-54" value="" style="endArrow=classic;html=1;rounded=0;endWidth=5.5078125;fillColor=none;strokeColor=default;strokeWidth=2;dashed=1;" parent="1" edge="1">
          <mxGeometry width="50" height="50" relative="1" as="geometry">
            <mxPoint x="-1279.57" y="1331" as="sourcePoint" />
            <mxPoint x="-1180" y="1330" as="targetPoint" />
          </mxGeometry>
        </mxCell>
        <mxCell id="bfQj3c2mJt4Mjwsp2Roz-10" value="①" style="edgeLabel;html=1;align=center;verticalAlign=middle;resizable=0;points=[];labelBackgroundColor=none;" vertex="1" connectable="0" parent="pCGolmidNcYzlRykDUOS-54">
          <mxGeometry x="-0.0421" y="4" relative="1" as="geometry">
            <mxPoint x="-9" y="-4" as="offset" />
          </mxGeometry>
        </mxCell>
        <mxCell id="pCGolmidNcYzlRykDUOS-55" value="" style="rounded=1;whiteSpace=wrap;html=1;" parent="1" vertex="1">
          <mxGeometry x="-1173.87" y="1303" width="80" height="80" as="geometry" />
        </mxCell>
        <mxCell id="pCGolmidNcYzlRykDUOS-56" value="&lt;span style=&quot;font-size: 12px;&quot;&gt;hypo 1&lt;/span&gt;" style="rounded=1;whiteSpace=wrap;html=1;fontFamily=Times New Roman;fontSize=2;strokeColor=#000000;rotation=0;container=0;fillColor=#CCE2FF;strokeWidth=0.2;" parent="1" vertex="1">
          <mxGeometry x="-1163.87" y="1311" width="60" height="20" as="geometry" />
        </mxCell>
        <mxCell id="pCGolmidNcYzlRykDUOS-57" value="&lt;span style=&quot;font-size: 12px;&quot;&gt;hypo 2&lt;/span&gt;" style="rounded=1;whiteSpace=wrap;html=1;fontFamily=Times New Roman;fontSize=2;strokeColor=#000000;rotation=0;container=0;fillColor=#CCE2FF;strokeWidth=0.2;" parent="1" vertex="1">
          <mxGeometry x="-1163.87" y="1334" width="60" height="20" as="geometry" />
        </mxCell>
        <mxCell id="pCGolmidNcYzlRykDUOS-58" value="&lt;span style=&quot;font-size: 12px;&quot;&gt;hypo3&lt;/span&gt;" style="rounded=1;whiteSpace=wrap;html=1;fontFamily=Times New Roman;fontSize=2;strokeColor=#000000;rotation=0;container=0;fillColor=#CCE2FF;strokeWidth=0.2;" parent="1" vertex="1">
          <mxGeometry x="-1163.87" y="1357" width="60" height="20" as="geometry" />
        </mxCell>
        <mxCell id="pCGolmidNcYzlRykDUOS-59" value="Beam 2" style="text;html=1;align=center;verticalAlign=middle;resizable=0;points=[];autosize=1;strokeColor=none;fillColor=none;labelBackgroundColor=none;labelBorderColor=none;fontFamily=Comic Sans MS;" parent="1" vertex="1">
          <mxGeometry x="-1163.87" y="1278" width="60" height="30" as="geometry" />
        </mxCell>
        <mxCell id="pCGolmidNcYzlRykDUOS-60" value="&lt;font style=&quot;font-size: 18px;&quot;&gt;...&lt;/font&gt;" style="text;html=1;strokeColor=none;fillColor=none;align=center;verticalAlign=middle;whiteSpace=wrap;rounded=0;" parent="1" vertex="1">
          <mxGeometry x="-1086.37" y="1357" width="60" height="30" as="geometry" />
        </mxCell>
        <mxCell id="pCGolmidNcYzlRykDUOS-61" value="" style="rounded=1;whiteSpace=wrap;html=1;" parent="1" vertex="1">
          <mxGeometry x="-1015.12" y="1303" width="80" height="80" as="geometry" />
        </mxCell>
        <mxCell id="pCGolmidNcYzlRykDUOS-62" value="&lt;span style=&quot;font-size: 12px;&quot;&gt;hypo 1&lt;/span&gt;" style="rounded=1;whiteSpace=wrap;html=1;fontFamily=Times New Roman;fontSize=2;strokeColor=#000000;rotation=0;container=0;fillColor=#CCE2FF;strokeWidth=0.2;" parent="1" vertex="1">
          <mxGeometry x="-1004.12" y="1311" width="60" height="20" as="geometry" />
        </mxCell>
        <mxCell id="pCGolmidNcYzlRykDUOS-63" value="&lt;span style=&quot;font-size: 12px;&quot;&gt;hypo 2&lt;/span&gt;" style="rounded=1;whiteSpace=wrap;html=1;fontFamily=Times New Roman;fontSize=2;strokeColor=#000000;rotation=0;container=0;fillColor=#CCE2FF;strokeWidth=0.2;" parent="1" vertex="1">
          <mxGeometry x="-1004.12" y="1334" width="60" height="20" as="geometry" />
        </mxCell>
        <mxCell id="pCGolmidNcYzlRykDUOS-64" value="&lt;span style=&quot;font-size: 12px;&quot;&gt;hypo3&lt;/span&gt;" style="rounded=1;whiteSpace=wrap;html=1;fontFamily=Times New Roman;fontSize=2;strokeColor=#000000;rotation=0;container=0;fillColor=#CCE2FF;strokeWidth=0.2;" parent="1" vertex="1">
          <mxGeometry x="-1004.12" y="1358" width="60" height="20" as="geometry" />
        </mxCell>
        <mxCell id="pCGolmidNcYzlRykDUOS-65" value="Beam 2" style="text;html=1;align=center;verticalAlign=middle;resizable=0;points=[];autosize=1;strokeColor=none;fillColor=none;labelBackgroundColor=none;labelBorderColor=none;fontFamily=Comic Sans MS;" parent="1" vertex="1">
          <mxGeometry x="-1004.12" y="1278" width="60" height="30" as="geometry" />
        </mxCell>
        <mxCell id="pCGolmidNcYzlRykDUOS-66" value="" style="endArrow=classicThin;html=1;rounded=0;exitX=1;exitY=0.5;exitDx=0;exitDy=0;endFill=1;strokeWidth=2;" parent="1" source="pCGolmidNcYzlRykDUOS-62" edge="1">
          <mxGeometry width="50" height="50" relative="1" as="geometry">
            <mxPoint x="-934.12" y="1346" as="sourcePoint" />
            <mxPoint x="-907" y="1321" as="targetPoint" />
          </mxGeometry>
        </mxCell>
        <mxCell id="pCGolmidNcYzlRykDUOS-67" value="&lt;span style=&quot;font-size: 12px;&quot;&gt;result&lt;/span&gt;" style="rounded=1;whiteSpace=wrap;html=1;fontFamily=Times New Roman;fontSize=2;strokeColor=#000000;rotation=0;container=0;fillColor=#CCE2FF;strokeWidth=0.2;" parent="1" vertex="1">
          <mxGeometry x="-907.12" y="1311" width="60" height="20" as="geometry" />
        </mxCell>
        <mxCell id="bfQj3c2mJt4Mjwsp2Roz-1" value="" style="endArrow=none;html=1;rounded=0;" edge="1" parent="1">
          <mxGeometry width="50" height="50" relative="1" as="geometry">
            <mxPoint x="-1446.5" y="1700" as="sourcePoint" />
            <mxPoint x="-736.5" y="1700" as="targetPoint" />
          </mxGeometry>
        </mxCell>
        <mxCell id="bfQj3c2mJt4Mjwsp2Roz-2" value="t = 1" style="rounded=0;whiteSpace=wrap;html=1;shadow=0;glass=0;fillColor=#ffcccc;strokeColor=#36393d;fillStyle=auto;" vertex="1" parent="1">
          <mxGeometry x="-1350.1199999999997" y="1620" width="39.37" height="20" as="geometry" />
        </mxCell>
        <mxCell id="bfQj3c2mJt4Mjwsp2Roz-3" value="t = 2" style="rounded=0;whiteSpace=wrap;html=1;shadow=0;glass=0;fillColor=#ffcccc;strokeColor=#36393d;fillStyle=auto;" vertex="1" parent="1">
          <mxGeometry x="-1157.0499999999997" y="1620" width="39.37" height="20" as="geometry" />
        </mxCell>
        <mxCell id="bfQj3c2mJt4Mjwsp2Roz-5" value="t = T" style="rounded=0;whiteSpace=wrap;html=1;shadow=0;glass=0;fillColor=#ffcccc;strokeColor=#36393d;fillStyle=auto;" vertex="1" parent="1">
          <mxGeometry x="-995.1199999999999" y="1620" width="39.37" height="20" as="geometry" />
        </mxCell>
        <mxCell id="bfQj3c2mJt4Mjwsp2Roz-6" value="" style="endArrow=none;html=1;rounded=0;" edge="1" parent="1">
          <mxGeometry width="50" height="50" relative="1" as="geometry">
            <mxPoint x="-1540" y="1918.3700000000001" as="sourcePoint" />
            <mxPoint x="-1540" y="1618.3700000000001" as="targetPoint" />
          </mxGeometry>
        </mxCell>
        <mxCell id="bfQj3c2mJt4Mjwsp2Roz-16" value="" style="endArrow=classic;html=1;rounded=0;endWidth=5.5078125;fillColor=none;strokeColor=default;strokeWidth=2;dashed=1;" edge="1" parent="1">
          <mxGeometry width="50" height="50" relative="1" as="geometry">
            <mxPoint x="-1279.54" y="1422" as="sourcePoint" />
            <mxPoint x="-1180" y="1360" as="targetPoint" />
          </mxGeometry>
        </mxCell>
        <mxCell id="bfQj3c2mJt4Mjwsp2Roz-17" value="②" style="edgeLabel;html=1;align=center;verticalAlign=middle;resizable=0;points=[];labelBackgroundColor=none;" vertex="1" connectable="0" parent="bfQj3c2mJt4Mjwsp2Roz-16">
          <mxGeometry x="-0.0421" y="4" relative="1" as="geometry">
            <mxPoint x="-7" as="offset" />
          </mxGeometry>
        </mxCell>
        <mxCell id="bfQj3c2mJt4Mjwsp2Roz-18" value="" style="endArrow=classic;html=1;rounded=0;endWidth=5.5078125;fillColor=none;strokeColor=default;strokeWidth=2;dashed=1;" edge="1" parent="1">
          <mxGeometry width="50" height="50" relative="1" as="geometry">
            <mxPoint x="-1279.56" y="1449.77" as="sourcePoint" />
            <mxPoint x="-1185" y="1450" as="targetPoint" />
          </mxGeometry>
        </mxCell>
        <mxCell id="bfQj3c2mJt4Mjwsp2Roz-19" value="③" style="edgeLabel;html=1;align=center;verticalAlign=middle;resizable=0;points=[];labelBackgroundColor=none;" vertex="1" connectable="0" parent="bfQj3c2mJt4Mjwsp2Roz-18">
          <mxGeometry x="-0.0421" y="4" relative="1" as="geometry">
            <mxPoint x="-6" y="-3" as="offset" />
          </mxGeometry>
        </mxCell>
        <mxCell id="bfQj3c2mJt4Mjwsp2Roz-20" value="" style="endArrow=classic;html=1;rounded=0;endWidth=5.5078125;fillColor=#000000;strokeColor=default;strokeWidth=2;dashed=1;" edge="1" parent="1">
          <mxGeometry width="50" height="50" relative="1" as="geometry">
            <mxPoint x="-1279.57" y="1467.53" as="sourcePoint" />
            <mxPoint x="-1185" y="1552" as="targetPoint" />
          </mxGeometry>
        </mxCell>
        <mxCell id="bfQj3c2mJt4Mjwsp2Roz-21" value="⑤" style="edgeLabel;html=1;align=center;verticalAlign=middle;resizable=0;points=[];labelBackgroundColor=none;" vertex="1" connectable="0" parent="bfQj3c2mJt4Mjwsp2Roz-20">
          <mxGeometry x="-0.0421" y="4" relative="1" as="geometry">
            <mxPoint x="-8" y="25" as="offset" />
          </mxGeometry>
        </mxCell>
        <mxCell id="bfQj3c2mJt4Mjwsp2Roz-22" value="" style="endArrow=classic;html=1;rounded=0;endWidth=5.5078125;fillColor=none;strokeColor=default;strokeWidth=2;dashed=1;" edge="1" parent="1">
          <mxGeometry width="50" height="50" relative="1" as="geometry">
            <mxPoint x="-1279.54" y="1553" as="sourcePoint" />
            <mxPoint x="-1190" y="1470" as="targetPoint" />
          </mxGeometry>
        </mxCell>
        <mxCell id="bfQj3c2mJt4Mjwsp2Roz-23" value="④" style="edgeLabel;html=1;align=center;verticalAlign=middle;resizable=0;points=[];labelBackgroundColor=none;" vertex="1" connectable="0" parent="bfQj3c2mJt4Mjwsp2Roz-22">
          <mxGeometry x="-0.0421" y="4" relative="1" as="geometry">
            <mxPoint y="-18" as="offset" />
          </mxGeometry>
        </mxCell>
        <mxCell id="bfQj3c2mJt4Mjwsp2Roz-24" value="" style="endArrow=classicThin;html=1;rounded=0;endWidth=5.5078125;fillColor=#000000;strokeColor=default;gradientColor=none;dashed=1;endFill=1;strokeWidth=2;" edge="1" parent="1">
          <mxGeometry width="50" height="50" relative="1" as="geometry">
            <mxPoint x="-1279.54" y="1582" as="sourcePoint" />
            <mxPoint x="-1180" y="1582" as="targetPoint" />
          </mxGeometry>
        </mxCell>
        <mxCell id="bfQj3c2mJt4Mjwsp2Roz-25" value="⑥" style="edgeLabel;html=1;align=center;verticalAlign=middle;resizable=0;points=[];labelBackgroundColor=none;" vertex="1" connectable="0" parent="bfQj3c2mJt4Mjwsp2Roz-24">
          <mxGeometry x="-0.0421" y="4" relative="1" as="geometry">
            <mxPoint x="-7" y="-3" as="offset" />
          </mxGeometry>
        </mxCell>
        <mxCell id="bfQj3c2mJt4Mjwsp2Roz-26" value="" style="endArrow=none;html=1;rounded=0;" edge="1" parent="1">
          <mxGeometry width="50" height="50" relative="1" as="geometry">
            <mxPoint x="-1233.12" y="1650" as="sourcePoint" />
            <mxPoint x="-1233.12" y="1620" as="targetPoint" />
          </mxGeometry>
        </mxCell>
        <mxCell id="bfQj3c2mJt4Mjwsp2Roz-27" value="" style="endArrow=none;html=1;rounded=0;" edge="1" parent="1">
          <mxGeometry width="50" height="50" relative="1" as="geometry">
            <mxPoint x="-1056.7999999999997" y="1650" as="sourcePoint" />
            <mxPoint x="-1056.7999999999997" y="1620" as="targetPoint" />
          </mxGeometry>
        </mxCell>
      </root>
    </mxGraphModel>
  </diagram>
</mxfile>
